<?xml version="1.0" encoding="utf-8" standalone="yes"?>
<!DOCTYPE svg PUBLIC "-//W3C//DTD SVG 1.1//EN" "http://www.w3.org/Graphics/SVG/1.1/DTD/svg11.dtd">
<svg width="888" height="678" viewBox="0 0 888 678" style="fill:none;stroke:none;fill-rule:evenodd;clip-rule:evenodd;stroke-linecap:round;stroke-linejoin:round;stroke-miterlimit:1.5;" version="1.1" xmlns="http://www.w3.org/2000/svg" xmlns:xlink="http://www.w3.org/1999/xlink"><style class="text-font-style fontImports" data-font-family="Roboto Mono">@import url('https://fonts.googleapis.com/css2?family=Roboto+Mono:wght@400;700&amp;display=block');</style><g id="items" style="isolation: isolate"><g id="blend" style="mix-blend-mode: normal"><g id="g-root-0d.cu_sy_zknywxs2ru32-fill" data-item-order="-218790" transform="translate(15.481704711914062, 418.759765625)"><g id="0d.cu_sy_zknywxs2ru32-fill" stroke="none" fill="#ababab"><g><path d="M 19.312079 169.973L 42.463879 169.973C 43.597079 169.973 44.633579 169.334 45.143279 168.322L 112.527979 34.5096C 106.811179 29.8033 101.340779 24.6548 96.164279 19.0975L 19.312079 169.973ZM 11.933079 167.162L 19.312079 169.973L 96.164279 19.0975C 93.443279 16.1764 90.803479 13.1423 88.251779 10L 10.327779 162.997C 9.518279 164.586 10.266179 166.527 11.933079 167.162ZM 98.137779 206.901L 105.312479 208.714C 105.312479 208.714 107.399979 209.14 108.373779 209.223L 142.926979 54.1986C 138.741979 52.1455 134.627979 49.8799 130.597979 47.4112L 95.944379 203.341C 95.592179 204.926 96.564179 206.503 98.137779 206.901ZM 108.373779 209.223C 109.347579 209.307 111.550979 209.067 111.550979 209.067L 132.499979 206.449C 133.757979 206.292 134.781979 205.36 135.056979 204.123L 144.645979 160.973L 151.090979 131.973L 166.367979 63.2307C 158.372979 60.9587 150.532979 57.9294 142.926979 54.1986L 108.373779 209.223ZM 287.783979 142.229L 280.140979 123.503C 279.646979 122.294 278.427979 121.543 277.125979 121.646L 271.614979 122.082L 151.090979 131.973L 144.645979 160.973L 281.792979 146.677L 285.285979 146.35C 287.289979 146.162 288.544979 144.093 287.783979 142.229ZM 299.101979 183.168L 309.924979 184.271L 257.405979 57.3543L 246.097979 60.4166L 271.614979 122.082L 277.125979 121.646C 278.427979 121.543 279.646979 122.294 280.140979 123.503L 287.783979 142.229C 288.544979 144.093 287.289979 146.162 285.285979 146.35L 281.792979 146.677L 295.812979 180.756C 296.235979 181.778 297.421979 182.938 299.101979 183.168ZM 309.924979 184.271L 328.402979 181.961C 330.369979 181.715 331.561979 179.664 330.801979 177.834L 278.161979 51.0183C 274.073979 52.6109 269.870979 53.9915 265.556979 55.1473L 265.552979 55.1485L 265.498979 55.1628L 257.405979 57.3543L 309.924979 184.271Z"></path></g></g></g><g id="g-root-0c.cu_sy_8ydf9ds2ru33-fill" data-item-order="-218786" transform="translate(104.87716674804688, 159.26171875)"><g id="0c.cu_sy_8ydf9ds2ru33-fill" stroke="none" fill="#ababab"><g><path d="M 229.213022 73.115285C 198.289022 25.646285 145.786022 0.174185 95.898922 13.541485C 31.082722 30.908885 -4.774778 107.262185 15.808822 184.080985C 36.392522 260.899985 105.622622 309.095985 170.439022 291.727985C 199.297022 283.994985 222.415022 264.569985 237.367022 238.615985L 218.864022 226.423985C 206.341022 246.969985 187.520022 262.304985 164.228022 268.545985C 110.081022 283.054985 52.281422 242.920985 35.128422 178.904985C 17.975422 114.888985 47.964822 51.232285 102.111622 36.723685C 143.046022 25.755485 186.067022 46.015785 212.037022 84.214685L 229.213022 73.115285ZM 215.298022 89.251485L 232.393022 78.203485C 240.151022 91.142385 246.345022 105.573985 250.529022 121.187985C 250.615022 121.511985 250.701022 121.834985 250.786022 122.158985L 231.077022 125.867985C 227.451022 112.523985 222.057022 100.224885 215.298022 89.251485ZM 194.043022 95.843585C 173.162022 66.724885 139.700022 51.497985 107.838422 60.035385C 64.627722 71.613685 40.722722 122.515985 54.445122 173.728985C 68.167522 224.940985 114.321022 257.070985 157.532022 245.492985C 175.336022 240.722985 189.862022 229.275985 199.830022 213.882985L 181.235022 201.630985C 173.922022 211.587985 163.873022 218.947985 151.803022 222.182985C 119.528022 230.830985 85.021322 206.703985 74.729522 168.293985C 64.437722 129.884985 82.258422 91.737185 114.533022 83.089185C 137.227022 77.008385 161.024022 87.131785 176.731022 107.030885L 194.043022 95.843585ZM 180.271022 111.886985L 197.400022 100.817685C 202.895022 109.475585 207.322022 119.199985 210.360022 129.766985L 190.593022 133.486985C 188.112022 125.566985 184.589022 118.308985 180.271022 111.886985ZM 159.073022 118.441985C 148.702022 107.704585 134.428022 102.604885 120.745022 106.271385C 99.139422 112.060985 87.186922 137.511985 94.048122 163.117985C 100.909322 188.723985 123.986022 204.788985 145.591022 198.999985C 152.053022 197.268985 157.652022 193.777985 162.142022 189.050985L 141.172022 175.234985C 140.591022 175.458985 139.993022 175.653985 139.380022 175.817985C 128.444022 178.747985 116.797022 170.744985 113.367022 157.941985C 109.936122 145.138985 116.021022 132.383985 126.957022 129.453985C 131.354022 128.274985 135.867022 128.864985 139.914022 130.823985L 159.073022 118.441985ZM 145.294022 134.490985L 163.010022 123.041985C 166.167022 127.202985 168.799022 131.971985 170.728022 137.225985L 150.440022 141.043985C 149.043022 138.519985 147.291022 136.310985 145.294022 134.490985ZM 152.795022 146.705985C 152.855022 146.912985 152.914022 147.120985 152.970022 147.329985C 153.916022 150.862985 154.139022 154.392985 153.734022 157.712985L 173.948022 162.126985C 174.577022 155.986985 174.147022 149.503985 172.507022 142.995985L 152.795022 146.705985ZM 192.193022 139.290985C 194.407022 148.560985 194.997022 157.779985 194.157022 166.538985L 214.325022 170.941985C 215.401022 159.564985 214.663022 147.610985 211.872022 135.587985L 192.193022 139.290985ZM 232.533022 131.698985C 235.926022 146.614985 236.790022 161.436985 235.417022 175.546985L 255.623022 179.958985C 257.212022 163.230985 256.185022 145.671985 252.207022 127.996985L 232.533022 131.698985ZM 254.938022 185.950985L 234.695022 181.530985C 232.632022 195.827985 228.244022 209.276985 221.849022 221.205985L 240.252022 233.330985C 247.639022 219.034985 252.657022 202.980985 254.938022 185.950985ZM 202.915022 208.729985C 208.179022 199.202985 211.823022 188.415985 213.585022 176.921985L 193.352022 172.504985C 191.819022 181.285985 188.815022 189.477985 184.549022 196.628985L 202.915022 208.729985ZM 165.949022 184.373985C 169.248022 179.637985 171.650022 174.084985 172.991022 168.058985L 152.304022 163.541985C 151.082022 166.751985 149.206022 169.574985 146.797022 171.754985L 165.949022 184.373985Z"></path></g></g></g><g id="g-root-0b.cu_sy_2qf0hs2rvnk-fill" data-item-order="-218782" transform="translate(50.848876953125, 135.50390625)"><g id="0b.cu_sy_2qf0hs2rvnk-fill" stroke="none" fill="#e45752"><g><path d="M 197.408992 347.279578C 121.656992 367.577578 40.779892 311.378578 16.765692 221.756578C -7.248508 132.133578 34.693392 43.026278 110.445992 22.728578L 143.226992 13.851578C 136.598992 15.627778 130.229992 17.934578 124.143992 20.725978C 60.920592 49.721978 28.124992 130.997578 50.030392 212.749578C 71.935392 294.500578 140.972992 348.489578 210.221992 341.991578C 216.888992 341.365578 223.557992 340.179578 230.185992 338.403578L 197.408992 347.279578ZM 309.853437 274.535015C 292.504437 305.910015 265.102437 329.445015 230.679437 338.668015C 155.194437 358.895015 74.533937 302.638015 50.519737 213.016015C 26.505437 123.394015 68.231137 34.343715 143.716637 14.117415C 202.551437 -1.647385 264.530437 29.051015 300.380437 85.796715L 283.241437 96.872915C 252.317437 49.403815 199.815437 23.931615 149.927437 37.299015C 85.111437 54.666415 49.253937 131.020015 69.837537 207.839015C 90.421137 284.658015 159.651437 332.853015 224.467437 315.486015C 253.326437 307.753015 276.443437 288.327015 291.395437 262.374015L 309.853437 274.535015ZM 312.666437 269.204015C 321.048437 252.544015 326.699437 233.887015 329.200437 214.126015L 308.966437 209.709015C 306.685437 226.739015 301.667437 242.793015 294.280437 257.089015L 312.666437 269.204015ZM 288.723437 205.289015C 286.660437 219.586015 282.272437 233.035015 275.877437 244.964015L 256.943437 232.488015C 262.208437 222.961015 265.851437 212.174015 267.613437 200.680015L 288.723437 205.289015ZM 289.445437 199.305015L 268.353437 194.700015C 269.429437 183.323015 268.691437 171.369015 265.900437 159.345015L 286.561437 155.457015C 289.954437 170.373015 290.818437 185.195015 289.445437 199.305015ZM 309.651437 203.717015L 329.859437 208.129015C 331.663437 188.784015 330.474437 168.488015 325.910437 148.052015L 306.235437 151.754015C 310.213437 169.430015 311.240437 186.989015 309.651437 203.717015ZM 304.814437 145.917015L 324.514437 142.209015C 324.307437 141.396015 324.094437 140.583015 323.876437 139.770015C 319.135437 122.076015 312.186437 105.682515 303.505437 90.921315L 286.422437 101.961015C 294.180437 114.900015 300.373437 129.332015 304.557437 144.946015C 304.644437 145.269015 304.729437 145.593015 304.814437 145.917015ZM 285.106437 149.626015L 264.389437 153.524015C 261.350437 142.957015 256.923437 133.233015 251.428437 124.575015L 269.326437 113.009015C 276.085437 123.982015 281.479437 136.281015 285.106437 149.626015ZM 266.066437 107.972315C 240.096437 69.773315 197.074437 49.512915 156.140437 60.481215C 101.993537 74.989815 72.004137 138.646015 89.157137 202.662015C 106.310137 266.678015 164.110437 306.812015 218.256437 292.303015C 241.548437 286.062015 260.369437 270.728015 272.892437 250.182015L 253.858437 237.641015C 243.890437 253.034015 229.364437 264.480015 211.560437 269.251015C 168.349437 280.829015 122.196237 248.699015 108.473837 197.486015C 94.751437 146.273015 118.656437 95.371115 161.867437 83.792815C 193.729437 75.255515 227.191437 90.482415 248.071437 119.601015L 266.066437 107.972315ZM 230.760437 130.788015C 215.053437 110.889015 191.255437 100.765915 168.561437 106.846715C 136.287037 115.495015 118.466437 153.642015 128.758237 192.052015C 139.050037 230.461015 173.557437 254.588015 205.831437 245.940015C 217.902437 242.706015 227.950437 235.346015 235.263437 225.389015L 216.170437 212.809015C 211.680437 217.536015 206.082437 221.026015 199.620437 222.758015C 178.014437 228.547015 154.938437 212.482015 148.076437 186.876015C 141.215637 161.269015 153.168437 135.818015 174.773437 130.029015C 188.457437 126.362015 202.731437 131.462015 213.101437 142.200015L 230.760437 130.788015ZM 193.942437 154.581015L 183.093437 161.593015C 181.701437 162.492015 181.302437 164.349015 182.201437 165.740015C 183.100437 167.132015 184.957437 167.531015 186.349437 166.632015L 199.322437 158.248015C 201.319437 160.068015 203.071437 162.278015 204.469437 164.801015L 198.538437 165.917015C 196.910437 166.224015 195.838437 167.792015 196.145437 169.421015C 196.452437 171.049015 198.020437 172.120015 199.648437 171.814015L 206.823437 170.464015C 206.884437 170.670015 206.942437 170.878015 206.998437 171.088015C 207.945437 174.621015 208.167437 178.151015 207.762437 181.471015L 197.378437 179.204015C 195.760437 178.851015 194.161437 179.877015 193.808437 181.495015C 193.454437 183.114015 194.480437 184.713015 196.099437 185.066015L 206.332437 187.300015C 205.110437 190.510015 203.234437 193.333015 200.825437 195.513015L 183.688437 184.222015C 182.304437 183.311015 180.444437 183.693015 179.533437 185.077015C 178.621437 186.461015 179.004437 188.321015 180.388437 189.233015L 195.200437 198.992015C 194.619437 199.216015 194.021437 199.411015 193.408437 199.576015C 182.472437 202.506015 170.826437 194.502015 167.395437 181.699015C 163.964437 168.896015 170.049437 156.141015 180.985437 153.211015C 185.383437 152.033015 189.895437 152.623015 193.942437 154.581015ZM 219.977437 208.132015L 238.577437 220.387015C 242.843437 213.236015 245.847437 205.044015 247.381437 196.263015L 227.019437 191.817015C 225.678437 197.843015 223.276437 203.396015 219.977437 208.132015ZM 227.977437 185.885015L 248.185437 190.297015C 249.026437 181.538015 248.435437 172.318015 246.221437 163.049015L 226.535437 166.754015C 228.175437 173.261015 228.605437 179.745015 227.977437 185.885015ZM 224.756437 160.983015C 222.828437 155.730015 220.196437 150.960015 217.039437 146.799015L 234.299437 135.645015C 238.617437 142.067015 242.141437 149.325015 244.621437 157.245015L 224.756437 160.983015Z"></path></g></g></g><g id="g-root-0a.cu_sy_1q87gqps2rw95-fill" data-item-order="-218778" transform="translate(219.88699340820312, 156.673828125)"><g id="0a.cu_sy_1q87gqps2rw95-fill" stroke="none" fill="#ababab"><g><path d="M 10.494969 163.907C 11.406269 162.524 13.266769 162.141 14.650469 163.052L 218.453969 297.335C 219.837969 298.246 220.220969 300.107 219.309969 301.491C 218.397969 302.874 216.537969 303.257 215.153969 302.346L 11.350169 168.063C 9.966469 167.151 9.583569 165.291 10.494969 163.907ZM 24.769869 160.325C 25.123169 158.707 26.721869 157.681 28.340569 158.034L 242.589969 204.812C 244.208969 205.165 245.234969 206.764 244.881969 208.383C 244.527969 210.001 242.929969 211.027 241.310969 210.674L 27.061269 163.896C 25.442469 163.543 24.416669 161.944 24.769869 160.325ZM 219.276969 11.3724C 220.175969 12.7641 219.776969 14.6211 218.384969 15.5202L 17.311069 145.462C 15.919369 146.362 14.062369 145.962 13.163269 144.571C 12.264169 143.179 12.663469 141.322 14.055169 140.423L 215.128969 10.4805C 216.520969 9.5814 218.377969 9.9807 219.276969 11.3724ZM 244.718969 107.2963C 245.025969 108.9246 243.953969 110.493 242.325969 110.8L 30.610669 150.644C 28.982469 150.95 27.413969 149.879 27.107369 148.251C 26.800869 146.623 27.872269 145.054 29.500469 144.747L 241.215969 104.9032C 242.843969 104.5966 244.412969 105.6681 244.718969 107.2963Z"></path></g></g></g><g id="g-root-3.cu_sy_1lt0fpds2rtvm-fill" data-item-order="-218774" transform="translate(413.974853515625, 331.755859375)"><g id="3.cu_sy_1lt0fpds2rtvm-fill" stroke="none" fill="#4f91fc"><g><path d="M 23.9579 11.3397L 11.2777 21.6221L 40.5884 28.0142L 52.2767 18.5365C 53.5793 17.4802 53.0817 15.3862 51.4432 15.0289L 29.0154 10.1378C 27.2345 9.7495 25.3737 10.1917 23.9579 11.3397ZM 17.2476 42.1112L 10 27.4829L 39.3107 33.875L 45.9915 47.3588C 46.7361 48.8615 45.4118 50.5581 43.7733 50.2008L 21.3455 45.3097C 19.5646 44.9213 18.0569 43.7445 17.2476 42.1112Z"></path></g></g></g><g id="g-root-4.cu_sy_1cxdfghs2ruob-fill" data-item-order="-218770" transform="translate(393.727783203125, 418.009765625)"><g id="4.cu_sy_1cxdfghs2ruob-fill" stroke="none" fill="#f79438"><g><path d="M 28.8226 10.293631L 13.2961 15.337631L 38.3572 31.827431L 52.6692 27.178331C 54.2641 26.660131 54.5515 24.527131 53.1506 23.605331L 33.9744 10.987731C 32.4517 9.985831 30.5562 9.730431 28.8226 10.293631ZM 11.5121 36.605431L 10 20.350331L 35.0611 36.840131L 36.4552 51.823531C 36.6106 53.493331 34.7654 54.601331 33.3645 53.679531L 14.1883 41.061931C 12.6656 40.060031 11.6809 38.420331 11.5121 36.605431Z"></path></g></g></g><g id="g-root-2.cu_sy_1cxdfghs2ruoc-fill" data-item-order="-218766" transform="translate(414.440673828125, 236.6953125)"><g id="2.cu_sy_1cxdfghs2ruoc-fill" stroke="none" fill="#1ac3fb"><g><path d="M 17.6585 17.372616L 10 31.790116L 39.4797 26.229516L 46.5393 12.940116C 47.326 11.459116 46.0503 9.725716 44.4024 10.036516L 21.8452 14.291316C 20.054 14.629216 18.5136 15.762916 17.6585 17.372616ZM 23.4985 48.323816L 11.1142 37.686916L 40.5939 32.126316L 52.0095 41.930916C 53.2817 43.023616 52.7251 45.102616 51.0772 45.413516L 28.52 49.668316C 26.7288 50.006116 24.8812 49.511415 23.4985 48.323816Z"></path></g></g></g><g id="g-root-1.cu_sy_zlwx35s2rw99-fill" data-item-order="-218762" transform="translate(393.704345703125, 143.931640625)"><g id="1.cu_sy_zlwx35s2rw99-fill" stroke="none" fill="#43dd93"><g><path d="M 11.6379 27.229716L 10 43.472616L 35.1881 27.177416L 36.6981 12.205216C 36.8664 10.536616 35.0299 9.414316 33.6218 10.325316L 14.3486 22.794016C 12.8182 23.784116 11.8208 25.416216 11.6379 27.229716ZM 28.7452 53.674816L 13.2582 48.510816L 38.4463 32.215516L 52.7218 36.975316C 54.3127 37.505716 54.5836 39.640916 53.1755 40.551816L 33.9023 53.020616C 32.3719 54.010716 30.4744 54.251416 28.7452 53.674816Z"></path></g></g></g><g id="g-root-grow_1q7l94xs31oga-fill" data-item-order="-2304" transform="translate(491.97186279296875, 122.8250732421875)"><g id="grow_1q7l94xs31oga-fill" stroke="none" fill="#43dd93"><g><path d="M 11.999799 34.99749C 26.398352 34.737514 34.257565 28.998093 36.657322 16.799316C 36.745071 16.329329 37.159184 15.991276 37.637222 15.999397L 38.957092 15.999397C 39.403652 16.049927 39.82906 15.796318 39.996986 15.379459C 40.164524 15.009758 40.075817 14.574274 39.777008 14.299568L 35.777412 10.29997C 35.595963 10.106635 35.342625 9.996964 35.07748 9.996964C 34.812336 9.996964 34.558998 10.106635 34.377552 10.29997L 30.377953 14.299568C 30.079147 14.574274 29.990437 15.009758 30.157974 15.379459C 30.299292 15.727453 30.623707 15.966902 30.99789 15.999397L 31.537838 15.999397C 31.84277 15.9978 32.131065 16.138252 32.317757 16.37936C 32.511456 16.6208 32.585022 16.93714 32.517738 17.239273C 30.237967 26.618332 23.998594 30.777914 11.999799 30.99789C 10.895341 30.99789 10 31.89323 10 32.997688C 10 34.10215 10.895341 34.99749 11.999799 34.99749ZM 55.49543 52.995682L 45.996384 52.995682C 45.444157 52.995682 44.996487 52.548012 44.996487 51.995781L 44.996487 28.558136C 45.001389 27.790241 45.193596 27.035143 45.556427 26.358358C 47.134529 24.277586 49.250237 22.666607 51.675812 21.698824C 51.927612 21.61108 52.204292 21.629738 52.442028 21.750494C 52.679768 21.871248 52.858028 22.083673 52.935684 22.33876C 53.106461 22.863346 52.820099 23.427126 52.29575 23.598635C 50.190983 24.489546 48.36171 25.925354 46.996281 27.758215C 46.905109 27.862127 46.868076 28.00285 46.89629 28.138178C 46.91293 28.284742 46.993435 28.416479 47.116272 28.498142C 47.800442 28.922632 48.590912 29.144518 49.396046 29.138079C 51.01265 29.0683 52.560246 28.463331 53.795601 27.418251C 57.13876 23.97393 58.580917 19.109453 57.655216 14.399558C 57.559326 14.114867 57.349178 13.882984 57.075272 13.759623C 56.803272 13.630074 56.487358 13.630074 56.215359 13.759623C 54.553371 14.617003 52.724373 15.101551 50.855892 15.17948C 47.296253 15.559442 43.316654 16.679329 42.856701 20.218973C 42.764786 20.89513 42.847401 21.583559 43.096676 22.218773C 43.21722 22.544483 43.156361 22.909668 42.936691 23.178677C 41.722652 24.676989 41.065422 26.549751 41.076881 28.478146L 41.076878 36.697319C 41.077572 36.89674 40.959686 37.077503 40.776909 37.157272C 40.609852 37.253723 40.404022 37.253723 40.236961 37.157272C 40.042416 37.000565 39.925636 36.766998 39.916996 36.517334C 39.882732 36.286625 39.829216 36.059185 39.757008 35.837402C 39.107719 34.458954 37.835293 33.47673 36.337353 33.19767C 34.755859 32.864151 33.110428 33.01754 31.61783 33.637627C 30.342834 34.121178 28.978987 34.325756 27.618229 34.237564C 27.316898 34.204395 27.016426 34.306995 26.798311 34.517536C 26.585173 34.735054 26.475895 35.033745 26.498341 35.337452C 27.225 39.116772 29.758024 42.299866 33.27766 43.856602C 33.992695 44.066547 34.732384 44.180862 35.47744 44.196564C 36.413765 44.237598 37.325493 43.890278 37.997189 43.236664C 38.099552 43.121845 38.150177 42.969975 38.137173 42.816704C 38.114563 42.66143 38.017487 42.52702 37.877197 42.456738C 36.292751 41.613911 34.574112 41.052307 32.79771 40.796906C 32.24548 40.714073 31.864962 40.199253 31.947796 39.647022C 32.030628 39.094791 32.545452 38.714272 33.097679 38.797108C 35.865681 38.9772 38.473942 40.156956 40.436943 42.116772C 40.773163 42.567448 40.95546 43.114342 40.95689 43.676613L 40.95689 51.995781C 40.95689 52.548012 40.50922 52.995682 39.956989 52.995682L 12.499749 52.995682C 11.119176 52.995682 10 54.114857 10 55.49543C 10 56.876007 11.119176 57.995178 12.499749 57.995178L 55.49543 57.995178C 56.876007 57.995178 57.995178 56.876007 57.995178 55.49543C 57.995178 54.114857 56.876007 52.995682 55.49543 52.995682Z"></path></g></g></g><g id="g-root-lite_1cwr7ups309hl-fill" data-item-order="-2304" transform="translate(491.971923828125, 242.82318115234375)"><g id="lite_1cwr7ups309hl-fill" stroke="none" fill="#1ac3fb"><g><path d="M 33.997589 11.999799C 21.848547 11.9998 11.999801 21.848547 11.999801 33.997589C 11.999801 46.146633 21.848547 55.99538 33.997593 55.99538C 46.146633 55.99538 55.99538 46.146633 55.99538 33.997589C 55.99538 21.848545 46.146633 11.999799 33.997589 11.999799ZM 44.996487 45.496433L 28.21817 45.496433C 27.445171 45.515598 26.706818 45.175953 26.21837 44.57653C 25.774002 44.011482 25.585546 43.286655 25.698423 42.576725L 26.718321 37.477242C 26.760483 37.299854 26.6985 37.113895 26.558336 36.997288C 26.395529 36.911942 26.201199 36.911942 26.038387 36.997288L 22.53874 38.537136C 22.348343 38.615353 22.144638 38.656094 21.938801 38.65712C 21.223785 38.662956 20.604074 38.163235 20.458239 37.463223C 20.312403 36.763214 20.681002 36.057594 21.338861 35.777412L 27.338259 33.137676C 27.484056 33.069717 27.588251 32.935753 27.618231 32.777714L 30.397951 18.779118C 30.44804 18.196722 30.827698 17.694664 31.374426 17.487829C 31.921158 17.280994 32.538059 17.406042 32.961086 17.80945C 33.384121 18.212856 33.538307 18.823128 33.357651 19.379059L 31.11788 30.537937C 31.077017 30.725315 31.146942 30.91955 31.297859 31.037888C 31.452545 31.127193 31.643126 31.127193 31.79781 31.037888L 37.27726 28.638126C 38.039303 28.306959 38.925529 28.656166 39.256828 29.41815C 39.588123 30.180136 39.239067 31.066423 38.477139 31.39785L 30.477943 34.897499C 30.337772 34.972328 30.235994 35.103188 30.197971 35.257462L 28.938099 41.996788C 28.917166 42.147427 28.96073 42.299908 29.058086 42.416744C 29.146025 42.537289 29.289066 42.605045 29.438047 42.596725L 44.996487 42.596725C 45.824829 42.596729 46.496334 43.26823 46.496334 44.096577C 46.496334 44.924919 45.824829 45.596428 44.996487 45.596428Z"></path></g></g></g><g id="g-root-decr_8yzwchs3a3gq-fill" data-item-order="-2304" transform="translate(491.97186279296875, 368.82318115234375)"><g id="decr_8yzwchs3a3gq-fill" stroke="none" fill="#4f91fc"><g><path d="M 55.99538 56.995281C 55.99538 57.547508 55.54771 57.995178 54.99548 57.995178L 44.996487 57.995178C 44.592815 57.997551 44.227318 57.756966 44.069885 57.38525C 43.912457 57.013538 43.993977 56.583622 44.276554 56.295349L 47.116272 53.455635C 47.211281 53.360542 47.262062 53.229965 47.256256 53.095669C 47.25444 52.958847 47.196617 52.828743 47.096272 52.73571L 37.997189 44.296555C 37.805397 44.139061 37.529041 44.139061 37.337254 44.296555L 31.557835 48.936089C 29.904793 50.227772 27.56443 50.152004 25.998394 48.756111L 25.578436 48.376148L 10.859914 35.357452C 10.090899 34.666828 9.826241 33.574131 10.194016 32.608166C 10.561792 31.642199 11.486147 31.002201 12.519747 30.99789C 13.134947 30.988615 13.729831 31.217968 14.179581 31.637829L 28.498142 44.356548C 28.68033 44.519501 28.955887 44.519501 29.138077 44.356544L 34.937496 39.717014C 36.609089 38.405361 38.982803 38.489834 40.556931 39.916996L 50.555927 49.236061C 50.747684 49.413898 51.044098 49.413898 51.235859 49.236061L 54.155563 46.316353C 54.346321 46.124931 54.605255 46.017044 54.875492 46.016384C 55.000561 45.988049 55.130386 45.988049 55.255451 46.016384C 55.628845 46.169773 55.873375 46.532627 55.875393 46.936287ZM 43.996586 10C 36.265377 10 29.997993 16.267384 29.997993 23.998594C 29.997993 31.729805 36.265377 37.997189 43.99659 37.997189C 51.727795 37.997189 57.995178 31.729805 57.995182 23.998594C 57.995182 16.267384 51.727795 10 43.996586 10ZM 52.995682 24.638531L 51.675816 24.638531L 49.396046 31.997791C 49.215775 32.630749 48.634277 33.064823 47.976189 33.057686C 47.315098 33.060322 46.730247 32.629803 46.536331 31.997791L 44.276554 24.638531L 43.65662 24.638531L 41.396847 31.997791C 41.216579 32.630749 40.635078 33.064823 39.97699 33.057686C 39.315903 33.060322 38.731049 32.629803 38.537136 31.997791L 36.277363 24.638531L 34.977489 24.638531C 34.149147 24.638531 33.477642 23.967024 33.477642 23.138681C 33.477642 22.310337 34.149147 21.638832 34.977493 21.638832L 35.357452 21.638832L 34.537537 18.959101C 34.272465 18.169413 34.697754 17.314362 35.487438 17.049292C 36.27713 16.784222 37.132179 17.209509 37.397251 17.999197L 38.497139 21.55884L 41.436844 21.55884L 42.536732 17.999197C 42.765858 17.395674 43.351246 17.002747 43.996586 17.019295C 44.623695 17.016325 45.184589 17.408947 45.396446 17.999197L 46.496334 21.55884L 49.436039 21.55884L 50.535931 17.999197C 50.784828 17.209841 51.626099 16.771307 52.415741 17.019295C 52.793346 17.134451 53.109291 17.39571 53.293312 17.744972C 53.477329 18.094234 53.514172 18.502546 53.395641 18.879108L 52.575726 21.55884L 52.975681 21.55884C 53.804031 21.55884 54.475533 22.230345 54.475533 23.058689C 54.475533 23.887033 53.804031 24.558538 52.975681 24.558538Z"></path></g></g></g><g id="g-root-circ_mcyb29s2rtov-fill" data-item-order="-2304" transform="translate(491.971923828125, 482.82122802734375)"><g id="circ_mcyb29s2rtov-fill" stroke="none" fill="#f79438"><g><path d="M 35.997387 35.457443L 35.49744 35.457443L 35.49744 42.456738L 35.997387 42.456738C 37.930195 42.456741 39.49704 40.889896 39.49704 38.957092C 39.49704 37.024288 37.930195 35.457443 35.997391 35.457443ZM 29.538038 25.458447L 32.537739 25.458447L 32.537739 32.457745L 29.538038 32.457745ZM 29.538038 35.457443L 32.537739 35.457443L 32.537739 42.456738L 29.538038 42.456738ZM 35.997387 25.458447L 35.49744 25.458447L 35.49744 32.457745L 35.997387 32.457745C 37.930195 32.457745 39.49704 30.8909 39.49704 28.958097C 39.49704 27.025293 37.930195 25.458448 35.997391 25.458448ZM 33.997589 10C 20.744087 10 10.000001 20.744087 10.000001 33.997589C 10.000002 47.251091 20.744089 57.995178 33.997593 57.995178C 47.251091 57.995178 57.995178 47.251091 57.995178 33.997589C 57.995178 20.744087 47.251095 10 33.997589 10ZM 42.536732 38.957092C 42.525707 42.557636 39.597931 45.467503 35.997391 45.45644L 35.49744 45.456436L 35.49744 46.956287C 35.49744 47.784634 34.825935 48.456139 33.997589 48.456139C 33.169247 48.456139 32.497742 47.784634 32.497742 46.956291L 32.497742 45.456436L 27.998192 45.456436C 27.205017 45.425701 26.569075 44.789761 26.538338 43.996586L 26.53834 23.998594C 26.526854 23.174353 27.174511 22.491207 27.998192 22.458748L 32.497742 22.458748L 32.497742 19.998995C 32.497742 19.170652 33.169247 18.499146 33.997589 18.499146C 34.825935 18.499146 35.49744 19.170652 35.49744 19.998995L 35.49744 22.458748L 35.997387 22.458748C 38.764732 22.417791 41.254452 24.133825 42.201 26.734579C 43.147549 29.335331 42.343262 32.250225 40.196968 33.997589C 41.663662 35.229794 42.518417 37.04158 42.536732 38.957092Z"></path></g></g></g><g id="g-root-tx_yield_dffvk1s2rw8w-fill" data-item-order="0" transform="translate(551.971923828125, 110.5)"><g id="tx_yield_dffvk1s2rw8w-fill" stroke="none" fill="#dffff0"><g><text style="font: bold 20px &quot;Roboto Mono&quot;, monospace; white-space: pre;" font-weight="bold" font-size="20px" font-family="'Roboto Mono', monospace"><tspan x="12" y="35" dominant-baseline="ideographic">Yield</tspan></text></g></g></g><g id="g-root-tx_thefinal_mb2vsxs2ruof-fill" data-item-order="0" transform="translate(552.210205078125, 146.82025146484375)"><g id="tx_thefinal_mb2vsxs2ruof-fill" stroke="none" fill="#dffff0"><g><text style="font: 15px &quot;Roboto Mono&quot;, monospace; white-space: pre;" font-size="15px" font-family="'Roboto Mono', monospace"><tspan x="12" y="32" dominant-baseline="ideographic">The final financial return</tspan></text></g></g></g><g id="g-root-tx_lstbtc_1qa2w01s2rv9m-fill" data-item-order="0" transform="translate(551.9718627929688, 230.5)"><g id="tx_lstbtc_1qa2w01s2rv9m-fill" stroke="none" fill="#e5f8ff"><g><text style="font: bold 20px &quot;Roboto Mono&quot;, monospace; white-space: pre;" font-weight="bold" font-size="20px" font-family="'Roboto Mono', monospace"><tspan x="12" y="35" dominant-baseline="ideographic">lstBTC</tspan></text></g></g></g><g id="g-root-tx_liquidit_4kfce9s2rtvt-fill" data-item-order="0" transform="translate(552.210205078125, 266.818359375)"><g id="tx_liquidit_4kfce9s2rtvt-fill" stroke="none" fill="#e5f8ff"><g><text style="font: 15px &quot;Roboto Mono&quot;, monospace; white-space: pre;" font-size="15px" font-family="'Roboto Mono', monospace"><tspan x="12" y="32" dominant-baseline="ideographic">Liquidity and trading efficiency</tspan></text></g></g></g><g id="g-root-tx_wbtc_1cz8upts2rtos-fill" data-item-order="0" transform="translate(551.971923828125, 350.5)"><g id="tx_wbtc_1cz8upts2rtos-fill" stroke="none" fill="#ebf2ff"><g><text style="font: bold 20px &quot;Roboto Mono&quot;, monospace; white-space: pre;" font-weight="bold" font-size="20px" font-family="'Roboto Mono', monospace"><tspan x="12" y="35" dominant-baseline="ideographic">wBTC</tspan></text></g></g></g><g id="g-root-tx_wrappedb_1lu9dvls2rw1v-fill" data-item-order="0" transform="translate(552.210205078125, 380.818359375)"><g id="tx_wrappedb_1lu9dvls2rw1v-fill" stroke="none" fill="#ebf2ff"><g><text style="font: 15px &quot;Roboto Mono&quot;, monospace; white-space: pre;" font-size="15px" font-family="'Roboto Mono', monospace"><tspan x="12" y="29" dominant-baseline="ideographic">Wrapped Bitcoin for Ethereum </tspan><tspan x="12" y="47" dominant-baseline="ideographic">compatibility</tspan></text></g></g></g><g id="g-root-tx_btc_znscchs2rv9q-fill" data-item-order="0" transform="translate(551.971923828125, 470.5)"><g id="tx_btc_znscchs2rv9q-fill" stroke="none" fill="#fff0e2"><g><text style="font: bold 20px &quot;Roboto Mono&quot;, monospace; white-space: pre;" font-weight="bold" font-size="20px" font-family="'Roboto Mono', monospace"><tspan x="12" y="35" dominant-baseline="ideographic">BTC</tspan></text></g></g></g><g id="g-root-tx_original_18jfclds2ruh1-fill" data-item-order="0" transform="translate(552.210205078125, 506.81640625)"><g id="tx_original_18jfclds2ruh1-fill" stroke="none" fill="#fff0e2"><g><text style="font: 15px &quot;Roboto Mono&quot;, monospace; white-space: pre;" font-size="15px" font-family="'Roboto Mono', monospace"><tspan x="12" y="32" dominant-baseline="ideographic">Original Bitcoin asset</tspan></text></g></g></g><g id="g-root-0d.cu_sy_zknywxs2ru32-stroke" data-item-order="-218790" transform="translate(15.481704711914062, 418.759765625)"><g id="0d.cu_sy_zknywxs2ru32-stroke" fill="none" stroke-linecap="round" stroke-linejoin="round" stroke-miterlimit="4" stroke="#2c2c2c" stroke-width="2"><g><path d="M 19.312079 169.9731L 42.463879 169.9731C 43.597079 169.9731 44.633579 169.3345 45.143279 168.3223L 112.527579 34.5096C 106.811179 29.8033 101.340779 24.6548 96.164279 19.0975L 19.312079 169.9731ZM 11.933079 167.162L 19.312079 169.9731L 96.164279 19.0975C 93.443279 16.1764 90.803479 13.1423 88.251779 10L 10.327779 162.997C 9.518279 164.5865 10.266179 166.527 11.933079 167.162ZM 98.137779 206.9008L 105.312479 208.7141C 105.312479 208.7141 107.399979 209.1396 108.373779 209.2233L 142.927379 54.1986C 138.741979 52.1455 134.627779 49.8799 130.597879 47.4112L 95.944379 203.3415C 95.592179 204.9259 96.564179 206.5031 98.137779 206.9008ZM 108.373779 209.2233C 109.347579 209.3069 111.550779 209.0675 111.550779 209.0675L 132.500379 206.4488C 133.758379 206.2915 134.781779 205.3604 135.056779 204.1228L 144.646279 160.9731L 151.091179 131.9731L 166.368279 63.2307C 158.373179 60.9587 150.532879 57.9294 142.927379 54.1986L 108.373779 209.2233ZM 287.783979 142.2293L 280.140579 123.503C 279.647079 122.2939 278.428179 121.543 277.126379 121.646L 271.615079 122.0822L 151.091179 131.9731L 144.646279 160.9731L 281.792479 146.677L 285.286079 146.3499C 287.290279 146.1623 288.544679 144.093 287.783979 142.2293ZM 299.102479 183.1681L 309.925079 184.2707L 257.406479 57.3543L 246.097479 60.4166L 271.615079 122.0822L 277.126379 121.646C 278.428179 121.543 279.647079 122.2939 280.140579 123.503L 287.783979 142.2293C 288.544679 144.093 287.290279 146.1623 285.286079 146.3499L 281.792479 146.677L 295.812779 180.7556C 296.235979 181.7784 297.421579 182.9379 299.102479 183.1681ZM 309.925079 184.2707L 328.403279 181.9609C 330.369679 181.7151 331.561679 179.6642 330.801979 177.834L 278.161479 51.0183C 274.074279 52.6109 269.870879 53.9915 265.557279 55.1473L 265.552979 55.1485L 265.499479 55.1628L 257.406479 57.3543L 309.925079 184.2707ZM 265.499479 55.1628C 265.517279 55.158 265.535079 55.1532 265.552979 55.1485"></path></g></g></g><g id="g-root-0c.cu_sy_8ydf9ds2ru33-stroke" data-item-order="-218786" transform="translate(104.87716674804688, 159.26171875)"><g id="0c.cu_sy_8ydf9ds2ru33-stroke" fill="none" stroke-linecap="round" stroke-linejoin="round" stroke-miterlimit="4" stroke="#2c2c2c" stroke-width="2"><g><path d="M 229.212522 73.115285C 198.288722 25.646285 145.786322 0.174185 95.898922 13.541485C 31.082722 30.908885 -4.774778 107.262185 15.808822 184.081285C 36.392422 260.900385 105.622622 309.095585 170.438822 291.728085C 199.297422 283.995485 222.415422 264.569585 237.367022 238.615585L 218.863622 226.424085C 206.341422 246.969885 187.519822 262.304985 164.228222 268.545885C 110.081422 283.054485 52.281422 242.920885 35.128422 178.904985C 17.975422 114.888985 47.964822 51.232285 102.111622 36.723685C 143.045622 25.755485 186.067422 46.015785 212.037222 84.214685L 229.212522 73.115285ZM 215.297722 89.251485L 232.393522 78.203485C 240.151322 91.142385 246.345022 105.573985 250.528822 121.188285C 250.615522 121.511785 250.701222 121.835285 250.785822 122.158785L 231.077322 125.867885C 227.450922 112.523785 222.056522 100.224885 215.297722 89.251485ZM 194.042622 95.843585C 173.162322 66.724885 139.700422 51.497985 107.838422 60.035385C 64.627722 71.613685 40.722722 122.515785 54.445122 173.728585C 68.167522 224.941285 114.321022 257.071385 157.531722 245.493085C 175.335622 240.722585 189.862222 229.276185 199.829722 213.882885L 181.234722 201.630985C 173.922122 211.587985 163.873422 218.948285 151.803022 222.182485C 119.528322 230.830485 85.021322 206.703985 74.729522 168.294385C 64.437722 129.884885 82.258422 91.737185 114.533122 83.089185C 137.226922 77.008385 161.024422 87.131785 176.731222 107.030885L 194.042622 95.843585ZM 180.271122 111.887185L 197.400022 100.817685C 202.895022 109.475585 207.321922 119.199585 210.360422 129.766785L 190.592922 133.486985C 188.112322 125.567285 184.588822 118.309385 180.271122 111.887185ZM 159.072922 118.442485C 148.702222 107.704585 134.428422 102.604885 120.744822 106.271385C 99.139422 112.060585 87.186922 137.511685 94.048122 163.118085C 100.909322 188.724385 123.986122 204.789485 145.591422 199.000285C 152.053522 197.268785 157.652022 193.778385 162.141922 189.050985L 141.172322 175.234485C 140.590622 175.458785 139.992922 175.653885 139.379922 175.818085C 128.443822 178.748385 116.797422 170.744885 113.366822 157.941685C 109.936122 145.138485 116.020522 132.383985 126.956622 129.453685C 131.354222 128.275385 135.866722 128.865085 139.913722 130.823885L 159.072922 118.442485ZM 145.294022 134.490785L 163.010522 123.041585C 166.167422 127.202685 168.799422 131.972185 170.727822 137.225485L 150.440222 141.043585C 149.042822 138.520185 147.290622 136.310685 145.294022 134.490785ZM 152.794822 146.705785C 152.855322 146.912585 152.913622 147.120685 152.969722 147.330085C 153.916422 150.863385 154.138522 154.392885 153.734022 157.713285L 173.948522 162.126785C 174.576922 155.987285 174.146622 149.503585 172.507122 142.995985L 152.794822 146.705785ZM 192.192822 139.291185C 194.406622 148.560485 194.997222 157.780285 194.157022 166.538985L 214.324922 170.942285C 215.401222 159.564985 214.662722 147.611485 211.871922 135.587585L 192.192822 139.291185ZM 232.532622 131.699385C 235.925922 146.614885 236.790122 161.437085 235.416822 175.547285L 255.623222 179.958985C 257.211722 163.231485 256.184822 145.672285 252.206622 127.996685L 232.532622 131.699385ZM 254.938022 185.950785L 234.694722 181.530985C 232.631822 195.827685 228.244022 209.277285 221.848822 221.205585L 240.252022 233.331085C 247.639322 219.035485 252.657322 202.980785 254.938022 185.950785ZM 202.914822 208.730285C 208.179422 199.202885 211.822722 188.415685 213.584922 176.921985L 193.352422 172.504585C 191.819322 181.285985 188.814822 189.477585 184.549122 196.629385L 202.914822 208.730285ZM 165.948622 184.373885C 169.248422 179.637985 171.649822 174.084685 172.990822 168.058985L 152.304022 163.542385C 151.082122 166.752285 149.205822 169.574885 146.796722 171.754985L 165.948622 184.373885Z"></path></g></g></g><g id="g-root-0b.cu_sy_2qf0hs2rvnk-stroke" data-item-order="-218782" transform="translate(50.848876953125, 135.50390625)"><g id="0b.cu_sy_2qf0hs2rvnk-stroke" fill="none" stroke-linecap="round" stroke-linejoin="round" stroke-miterlimit="4" stroke="#2c2c2c" stroke-width="2"><g><path d="M 197.408792 347.279578C 121.656592 367.577378 40.779892 311.378678 16.765692 221.756378C -7.248508 132.134078 34.693392 43.026278 110.445592 22.728578L 143.227292 13.851578C 136.598592 15.627778 130.230192 17.934578 124.143792 20.725978C 60.920592 49.721978 28.124992 130.997878 50.030392 212.749978C 71.935392 294.500578 140.972892 348.489178 210.222392 341.991378C 216.889092 341.365778 223.557792 340.179678 230.186492 338.403778L 197.408792 347.279578ZM 230.190492 338.402678L 230.186492 338.403778M 309.853337 274.535215C 292.504137 305.909915 265.102137 329.445115 230.679837 338.668515C 155.194337 358.894715 74.533937 302.638215 50.519737 213.015815C 26.505437 123.393515 68.231137 34.343715 143.716637 14.117415C 202.551537 -1.647385 264.530337 29.051015 300.380737 85.796715L 283.241237 96.872915C 252.317437 49.403815 199.815037 23.931615 149.927637 37.299015C 85.111437 54.666415 49.253937 131.019715 69.837537 207.838815C 90.421137 284.657915 159.651337 332.853015 224.467437 315.485615C 253.325937 307.753015 276.443837 288.327315 291.395437 262.373615L 309.853337 274.535215ZM 312.666937 269.203615C 321.048637 252.544515 326.699537 233.887515 329.200637 214.126415L 308.966637 209.708715C 306.685837 226.738715 301.667837 242.793415 294.280437 257.089115L 312.666937 269.203615ZM 288.723337 205.288915C 286.660437 219.585615 282.272637 233.035215 275.877337 244.963615L 256.943337 232.488215C 262.207937 222.960815 265.851337 212.173615 267.613537 200.679915L 288.723337 205.288915ZM 289.445437 199.305215L 268.353637 194.700215C 269.429937 183.322915 268.691537 171.369315 265.900737 159.345415L 286.561337 155.457115C 289.954737 170.372715 290.818837 185.195015 289.445437 199.305215ZM 309.651837 203.716915L 329.859537 208.128915C 331.663937 188.783915 330.474337 168.487515 325.910437 148.051715L 306.235437 151.754515C 310.213537 169.430115 311.240337 186.989315 309.651837 203.716915ZM 304.814637 145.916515L 324.514137 142.209215C 324.307037 141.396215 324.094537 140.583115 323.876737 139.770115C 319.135537 122.076015 312.186537 105.682515 303.505237 90.921315L 286.422237 101.961015C 294.180037 114.899915 300.373737 129.331515 304.557537 144.945815C 304.644237 145.269415 304.729937 145.593015 304.814637 145.916515ZM 285.106137 149.625615L 264.389237 153.524515C 261.350637 142.957215 256.923737 133.233215 251.428737 124.575315L 269.326437 113.009015C 276.085337 123.982515 281.479737 136.281415 285.106137 149.625615ZM 266.065937 107.972315C 240.096237 69.773315 197.074337 49.512915 156.140337 60.481215C 101.993537 74.989815 72.004137 138.646515 89.157137 202.662415C 106.310137 266.678415 164.110137 306.812015 218.256937 292.303415C 241.548337 286.062515 260.369837 270.727615 272.892037 250.182015L 253.858137 237.640815C 243.890637 253.033915 229.364237 264.480115 211.560437 269.250615C 168.349637 280.828915 122.196237 248.698815 108.473837 197.486115C 94.751437 146.273315 118.656437 95.371115 161.867137 83.792815C 193.729137 75.255515 227.191037 90.482415 248.071337 119.601115L 266.065937 107.972315ZM 230.759937 130.788415C 215.053137 110.889315 191.255637 100.765915 168.561737 106.846715C 136.287037 115.494715 118.466437 153.642315 128.758237 192.051915C 139.050037 230.461515 173.557037 254.588015 205.831737 245.940015C 217.901937 242.705815 227.950537 235.345615 235.263137 225.388915L 216.170237 212.808915C 211.680437 217.536115 206.082037 221.026415 199.620137 222.757815C 178.014837 228.546915 154.938037 212.481915 148.076837 186.875515C 141.215637 161.269215 153.168137 135.818115 174.773537 130.028915C 188.457137 126.362415 202.730937 131.462115 213.101637 142.200015L 230.759937 130.788415ZM 193.942437 154.581415L 183.093237 161.592615C 181.701537 162.491715 181.302237 164.348815 182.201337 165.740515C 183.100437 167.132115 184.957437 167.531515 186.349137 166.632415L 199.322737 158.248315C 201.319437 160.068315 203.071637 162.277815 204.469137 164.801315L 198.538637 165.917415C 196.910337 166.224015 195.838937 167.792415 196.145537 169.420715C 196.452037 171.048915 198.020537 172.120415 199.648837 171.813815L 206.823637 170.463515C 206.884037 170.670215 206.942337 170.878315 206.998437 171.087615C 207.945237 174.621015 208.167337 178.150715 207.762737 181.471215L 197.378737 179.204015C 195.759937 178.850715 194.161337 179.876615 193.808037 181.495315C 193.454737 183.114115 194.480637 184.712715 196.099337 185.066015L 206.332537 187.300315C 205.110637 190.510215 203.234237 193.332815 200.825037 195.512815L 183.688637 184.221915C 182.304937 183.310615 180.444437 183.693515 179.533037 185.077115C 178.621637 186.460815 179.004537 188.321315 180.388237 189.232715L 195.200437 198.992215C 194.618937 199.216415 194.021437 199.411415 193.408637 199.575615C 182.472537 202.505915 170.826037 194.502415 167.395437 181.699215C 163.964837 168.896015 170.049237 156.141515 180.985337 153.211215C 185.382937 152.032815 189.895537 152.622515 193.942437 154.581415ZM 219.977037 208.131815L 238.577537 220.387415C 242.843337 213.235615 245.847837 205.044015 247.381037 196.262515L 227.019437 191.816915C 225.678337 197.842615 223.276837 203.395915 219.977037 208.131815ZM 227.977137 185.884715L 248.185637 190.296815C 249.025937 181.538215 248.435337 172.318315 246.221537 163.048915L 226.535837 166.753715C 228.175337 173.261415 228.605637 179.745115 227.977137 185.884715ZM 224.756637 160.983215C 222.828237 155.729815 220.196137 150.960315 217.039237 146.799215L 234.299837 135.644715C 238.617537 142.067015 242.141137 149.325015 244.621737 157.244715L 224.756637 160.983215Z"></path></g></g></g><g id="g-root-0a.cu_sy_1q87gqps2rw95-stroke" data-item-order="-218778" transform="translate(219.88699340820312, 156.673828125)"><g id="0a.cu_sy_1q87gqps2rw95-stroke" fill="none" stroke-linecap="round" stroke-linejoin="round" stroke-miterlimit="4" stroke="#2c2c2c" stroke-width="2"><g><path d="M 10.494969 163.9072C 11.406269 162.5235 13.266769 162.1406 14.650469 163.052L 218.454369 297.335C 219.838069 298.2464 220.220869 300.1069 219.309569 301.4906C 218.398169 302.8743 216.537669 303.2572 215.153969 302.3458L 11.350169 168.0628C 9.966469 167.1514 9.583569 165.2909 10.494969 163.9072ZM 24.769869 160.3254C 25.123169 158.7067 26.721869 157.6808 28.340569 158.0341L 242.590269 204.8119C 244.209069 205.1651 245.234969 206.7638 244.881669 208.3825C 244.528369 210.0013 242.929669 211.0272 241.310969 210.6739L 27.061269 163.8961C 25.442469 163.5428 24.416669 161.9442 24.769869 160.3254ZM 219.276869 11.3724C 220.175969 12.7641 219.776669 14.6211 218.384969 15.5202L 17.311069 145.4624C 15.919369 146.3615 14.062369 145.9622 13.163269 144.5705C 12.264169 143.1789 12.663469 141.3218 14.055069 140.4227L 215.129069 10.4805C 216.520769 9.5814 218.377769 9.9807 219.276869 11.3724ZM 244.719069 107.2963C 245.025669 108.9246 243.954269 110.493 242.325969 110.7996L 30.610669 150.6439C 28.982469 150.9504 27.413969 149.879 27.107369 148.2508C 26.800869 146.6225 27.872269 145.054 29.500469 144.7475L 241.215869 104.9032C 242.844069 104.5966 244.412569 105.6681 244.719069 107.2963Z"></path></g></g></g><g id="g-root-3.cu_sy_1lt0fpds2rtvm-stroke" data-item-order="-218774" transform="translate(413.974853515625, 331.755859375)"><g id="3.cu_sy_1lt0fpds2rtvm-stroke" fill="none" stroke-linecap="round" stroke-linejoin="round" stroke-miterlimit="4" stroke="#2c2c2c" stroke-width="2"><g><path d="M 23.9579 11.3397L 11.2777 21.6221L 40.5884 28.0142L 52.2767 18.5365C 53.5793 17.4802 53.0817 15.3862 51.4432 15.0289L 29.0154 10.1378C 27.2345 9.7495 25.3737 10.1917 23.9579 11.3397ZM 17.2476 42.1112L 10 27.4829L 39.3107 33.875L 45.9915 47.3588C 46.7361 48.8615 45.4118 50.5581 43.7733 50.2008L 21.3455 45.3097C 19.5646 44.9213 18.0568 43.7445 17.2476 42.1112Z"></path></g></g></g><g id="g-root-4.cu_sy_1cxdfghs2ruob-stroke" data-item-order="-218770" transform="translate(393.727783203125, 418.009765625)"><g id="4.cu_sy_1cxdfghs2ruob-stroke" fill="none" stroke-linecap="round" stroke-linejoin="round" stroke-miterlimit="4" stroke="#2c2c2c" stroke-width="2"><g><path d="M 28.8226 10.293631L 13.2961 15.337631L 38.3572 31.827431L 52.6692 27.178331C 54.2641 26.660131 54.5515 24.527131 53.1506 23.605331L 33.9744 10.987731C 32.4517 9.985831 30.5562 9.730431 28.8226 10.293631ZM 11.5121 36.605431L 10 20.350331L 35.0611 36.840131L 36.4552 51.823531C 36.6106 53.493331 34.7654 54.601331 33.3645 53.679531L 14.1883 41.061931C 12.6656 40.060031 11.6809 38.420331 11.5121 36.605431Z"></path></g></g></g><g id="g-root-2.cu_sy_1cxdfghs2ruoc-stroke" data-item-order="-218766" transform="translate(414.440673828125, 236.6953125)"><g id="2.cu_sy_1cxdfghs2ruoc-stroke" fill="none" stroke-linecap="round" stroke-linejoin="round" stroke-miterlimit="4" stroke="#2c2c2c" stroke-width="2"><g><path d="M 17.6585 17.372616L 10 31.790116L 39.4797 26.229516L 46.5393 12.940116C 47.3261 11.459116 46.0503 9.725716 44.4024 10.036516L 21.8452 14.291316C 20.054 14.629216 18.5136 15.762916 17.6585 17.372616ZM 23.4985 48.323816L 11.1142 37.686916L 40.5939 32.126316L 52.0095 41.930916C 53.2817 43.023616 52.7251 45.102616 51.0772 45.413516L 28.52 49.668316C 26.7288 50.006116 24.8812 49.511415 23.4985 48.323816Z"></path></g></g></g><g id="g-root-1.cu_sy_zlwx35s2rw99-stroke" data-item-order="-218762" transform="translate(393.704345703125, 143.931640625)"><g id="1.cu_sy_zlwx35s2rw99-stroke" fill="none" stroke-linecap="round" stroke-linejoin="round" stroke-miterlimit="4" stroke="#2c2c2c" stroke-width="2"><g><path d="M 11.6379 27.229716L 10 43.472616L 35.1881 27.177416L 36.6981 12.205216C 36.8664 10.536616 35.0299 9.414316 33.6218 10.325316L 14.3485 22.794016C 12.8181 23.784116 11.8208 25.416216 11.6379 27.229716ZM 28.7452 53.674816L 13.2582 48.510816L 38.4463 32.215516L 52.7218 36.975316C 54.3127 37.505716 54.5836 39.640916 53.1755 40.551816L 33.9023 53.020616C 32.3719 54.010716 30.4744 54.251416 28.7452 53.674816Z"></path></g></g></g><g id="g-root-grow_1q7l94xs31oga-stroke" data-item-order="-2304" transform="translate(491.97186279296875, 122.8250732421875)"></g><g id="g-root-lite_1cwr7ups309hl-stroke" data-item-order="-2304" transform="translate(491.971923828125, 242.82318115234375)"></g><g id="g-root-decr_8yzwchs3a3gq-stroke" data-item-order="-2304" transform="translate(491.97186279296875, 368.82318115234375)"></g><g id="g-root-circ_mcyb29s2rtov-stroke" data-item-order="-2304" transform="translate(491.971923828125, 482.82122802734375)"></g><g id="g-root-tx_yield_dffvk1s2rw8w-stroke" data-item-order="0" transform="translate(551.971923828125, 110.5)"></g><g id="g-root-tx_thefinal_mb2vsxs2ruof-stroke" data-item-order="0" transform="translate(552.210205078125, 146.82025146484375)"></g><g id="g-root-tx_lstbtc_1qa2w01s2rv9m-stroke" data-item-order="0" transform="translate(551.9718627929688, 230.5)"></g><g id="g-root-tx_liquidit_4kfce9s2rtvt-stroke" data-item-order="0" transform="translate(552.210205078125, 266.818359375)"></g><g id="g-root-tx_wbtc_1cz8upts2rtos-stroke" data-item-order="0" transform="translate(551.971923828125, 350.5)"></g><g id="g-root-tx_wrappedb_1lu9dvls2rw1v-stroke" data-item-order="0" transform="translate(552.210205078125, 380.818359375)"></g><g id="g-root-tx_btc_znscchs2rv9q-stroke" data-item-order="0" transform="translate(551.971923828125, 470.5)"></g><g id="g-root-tx_original_18jfclds2ruh1-stroke" data-item-order="0" transform="translate(552.210205078125, 506.81640625)"></g></g></g></svg>