<?xml version="1.0" encoding="utf-8" standalone="yes"?>
<!DOCTYPE svg PUBLIC "-//W3C//DTD SVG 1.1//EN" "http://www.w3.org/Graphics/SVG/1.1/DTD/svg11.dtd">
<svg width="1070" height="974" viewBox="0 0 1070 974" style="fill:none;stroke:none;fill-rule:evenodd;clip-rule:evenodd;stroke-linecap:round;stroke-linejoin:round;stroke-miterlimit:1.5;" version="1.1" xmlns="http://www.w3.org/2000/svg" xmlns:xlink="http://www.w3.org/1999/xlink"><style class="text-font-style fontImports" data-font-family="Shantell Sans">@import url('https://fonts.googleapis.com/css2?family=Shantell+Sans:wght@300..800&amp;display=block');</style><g id="items" style="isolation: isolate"><g id="blend" style="mix-blend-mode: normal"><g id="g-root-1.g-1_fr_zpotkap1elfn-fill" data-item-order="-942470" transform="translate(525, 153)"><g id="1.g-1_fr_zpotkap1elfn-fill" stroke="none" fill="#426397"><g><path d="M 88.7498 250.233C 91.2371 244.228 95.1619 239.254 99.9602 235.544C 109.8397 227.906 123.422 225.628 135.786 230.75C 154.155 238.358 162.878 259.417 155.269 277.786C 151.401 287.124 144.058 293.968 135.359 297.443C 126.946 300.803 117.264 301.01 108.2328 297.269C 89.864 289.66 81.1412 268.602 88.7498 250.233ZM 328 328C 328 250.502 300.277 179.478 254.208 124.306C 198.264 57.3069 115.264 13.6827 22 10.2227L 22 177.663C 22 190.064 31.5498 200.185 43.5266 203.4C 65.0907 209.188 84.4241 220.425 99.9602 235.544C 109.8397 227.906 123.422 225.628 135.786 230.75C 154.155 238.358 162.878 259.417 155.269 277.786C 151.401 287.124 144.058 293.968 135.359 297.443C 137.739 307.239 139 317.472 139 328C 139 339.656 137.454 350.95 134.557 361.689C 131.318 373.692 135.303 387.065 146.069 393.281L 291.021 476.969C 291.126 476.771 291.231 476.572 291.336 476.374C 292.526 474.122 293.689 471.855 294.826 469.572C 295.016 469.19 295.206 468.808 295.394 468.426C 316.271 426.077 328 378.408 328 328Z"></path></g></g></g><g id="g-root-2.g-2_fr_1hi7s8ap1el8l-fill" data-item-order="-942466" transform="translate(249.54299926757812, 553.3200073242188)"><g id="2.g-2_fr_1hi7s8ap1el8l-fill" stroke="none" fill="#60703f"><g><path d="M 252.207 42.9131C 259.816 24.5443 280.874 15.8214 299.243 23.43C 311.452 28.487 319.399 39.4856 321.123 51.6869C 321.993 57.8434 321.278 64.3061 318.726 70.4663C 311.118 88.8351 290.059 97.558 271.69 89.9494C 256.202 83.534 247.572 67.5561 249.807 51.6913C 250.222 48.7406 251.014 45.7938 252.207 42.9131ZM 200.492 234.203C 227.538 241.683 256.031 245.68 285.457 245.68C 398.679 245.68 498.081 186.51 554.426 97.4037L 409.251 13.5868C 398.559 7.4136 385.08 10.558 376.316 19.2541C 361.14 34.3123 342.242 45.624 321.123 51.6869C 321.993 57.8434 321.278 64.3061 318.726 70.4663C 311.118 88.8351 290.059 97.558 271.69 89.9494C 256.202 83.534 247.572 67.5561 249.807 51.6913C 228.544 45.59 209.532 34.1685 194.303 18.9598C 185.541 10.2102 172.021 7.0293 161.298 13.2203L 16.2212 96.9805C 57.9103 163.139 123.31 212.856 200.492 234.203Z"></path></g></g></g><g id="g-root-3.g-3_fr_147dqy2p1ejnr-fill" data-item-order="-942462" transform="translate(207, 153)"><g id="3.g-3_fr_147dqy2p1ejnr-fill" stroke="none" fill="#346778"><g><path d="M 181.75 250.233C 189.358 231.864 210.417 223.141 228.786 230.75C 232.04 232.098 234.992 233.868 237.603 235.97C 249.733 245.736 254.53 262.671 248.269 277.786C 240.843 295.715 220.603 304.454 202.557 297.788C 202.114 297.624 201.673 297.451 201.233 297.269C 182.864 289.66 174.141 268.602 181.75 250.233ZM 295.486 11.6418C 135.133 27.9266 10 163.35 10 328C 10 381.648 23.285 432.194 46.7447 476.526L 191.794 392.782C 202.529 386.584 206.526 373.265 203.336 361.287C 200.507 350.668 199 339.51 199 328C 199 317.596 200.232 307.479 202.557 297.788C 202.114 297.624 201.673 297.451 201.233 297.269C 182.864 289.66 174.141 268.602 181.75 250.233C 189.358 231.864 210.417 223.141 228.786 230.75C 232.04 232.098 234.992 233.868 237.603 235.97C 253.213 220.636 272.707 209.242 294.473 203.4C 306.45 200.185 316 190.063 316 177.663L 316 10.2222C 309.104 10.4781 302.264 10.9535 295.486 11.6418Z"></path></g></g></g><g id="g-root-tx_btcyield_959p62p1ekg1-fill" data-item-order="0" transform="translate(339, 39)"><g id="tx_btcyield_959p62p1ekg1-fill" stroke="none" fill="#f4f4f4"><g><text style="font: bold 25px &quot;Shantell Sans&quot;, cursive; white-space: pre;" font-weight="bold" font-size="25px" font-family="'Shantell Sans', cursive"><tspan x="11.94" y="45" dominant-baseline="ideographic">BTC Yield Optimization Cycle</tspan></text></g></g></g><g id="g-root-tx_earnsust_18gc4a2p1d7gv-fill" data-item-order="0" transform="translate(75, 159)"><g id="tx_earnsust_18gc4a2p1d7gv-fill" stroke="none" fill="#1ac3fb"><g><text style="font: bold 20px &quot;Shantell Sans&quot;, cursive; white-space: pre;" font-weight="bold" font-size="20px" font-family="'Shantell Sans', cursive"><tspan x="89.78" y="35" dominant-baseline="ideographic">Earn </tspan><tspan x="18.42" y="59" dominant-baseline="ideographic">Sustainable </tspan><tspan x="89.27" y="83" dominant-baseline="ideographic">Yield</tspan></text></g></g></g><g id="g-root-tx_restakeb_zjg5uyp1d6v9-fill" data-item-order="0" transform="translate(843, 171)"><g id="tx_restakeb_zjg5uyp1d6v9-fill" stroke="none" fill="#4f91fc"><g><text style="font: bold 20px &quot;Shantell Sans&quot;, cursive; white-space: pre;" font-weight="bold" font-size="20px" font-family="'Shantell Sans', cursive"><tspan x="12" y="35" dominant-baseline="ideographic">Restake BTC</tspan></text></g></g></g><g id="g-root-tx_initiate_1ilyip1d7ny-fill" data-item-order="0" transform="translate(843, 207)"><g id="tx_initiate_1ilyip1d7ny-fill" stroke="none" fill="#f4f4f4"><g><text style="font: 15px &quot;Shantell Sans&quot;, cursive; white-space: pre;" font-size="15px" font-family="'Shantell Sans', cursive"><tspan x="12" y="32" dominant-baseline="ideographic">Initiate the </tspan><tspan x="12" y="50" dominant-baseline="ideographic">process by </tspan><tspan x="12" y="68" dominant-baseline="ideographic">restaking BTC to </tspan><tspan x="12" y="86" dominant-baseline="ideographic">start earning </tspan><tspan x="12" y="104" dominant-baseline="ideographic">yields.</tspan></text></g></g></g><g id="g-root-tx_achievea_qpokvep1d6o8-fill" data-item-order="0" transform="translate(63, 243)"><g id="tx_achievea_qpokvep1d6o8-fill" stroke="none" fill="#f4f4f4"><g><text style="font: 15px &quot;Shantell Sans&quot;, cursive; white-space: pre;" font-size="15px" font-family="'Shantell Sans', cursive"><tspan x="32.2" y="32" dominant-baseline="ideographic">Achieve a stable </tspan><tspan x="20.72" y="50" dominant-baseline="ideographic">and ongoing yield </tspan><tspan x="84.08" y="68" dominant-baseline="ideographic">from BTC.</tspan></text></g></g></g><g id="g-root-conv_8wj54ap14rnu-fill" data-item-order="0" transform="translate(303, 339)"></g><g id="g-root-1_8yeh7up1fzf1-fill" data-item-order="0" transform="translate(699, 339)"></g><g id="g-root-tx_3_zkp0vep1fzf0-fill" data-item-order="0" transform="translate(394, 389)"><g id="tx_3_zkp0vep1fzf0-fill" stroke="none" fill="#1ac3fb"><g><text style="font: bold 30px &quot;Shantell Sans&quot;, cursive; white-space: pre;" font-weight="bold" font-size="30px" font-family="'Shantell Sans', cursive"><tspan x="17.5" y="48" dominant-baseline="ideographic">3</tspan></text></g></g></g><g id="g-root-tx_1_hs627ep1fzm2-fill" data-item-order="0" transform="translate(626, 389)"><g id="tx_1_hs627ep1fzm2-fill" stroke="none" fill="#4f91fc"><g><text style="font: bold 30px &quot;Shantell Sans&quot;, cursive; white-space: pre;" font-weight="bold" font-size="30px" font-family="'Shantell Sans', cursive"><tspan x="15.17" y="48" dominant-baseline="ideographic">1</tspan></text></g></g></g><g id="g-root-tx_2_1cvj25mp1g0zv-fill" data-item-order="0" transform="translate(507, 583)"><g id="tx_2_1cvj25mp1g0zv-fill" stroke="none" fill="#a6da37"><g><text style="font: bold 30px &quot;Shantell Sans&quot;, cursive; white-space: pre;" font-weight="bold" font-size="30px" font-family="'Shantell Sans', cursive"><tspan x="17.5" y="48" dominant-baseline="ideographic">2</tspan></text></g></g></g><g id="g-root-micr_hwjgyyp1acjo-fill" data-item-order="0" transform="translate(501, 675)"></g><g id="g-root-tx_maximize_8z11gqp1d5vl-fill" data-item-order="0" transform="translate(465, 831)"><g id="tx_maximize_8z11gqp1d5vl-fill" stroke="none" fill="#a6da37"><g><text style="font: bold 20px &quot;Shantell Sans&quot;, cursive; white-space: pre;" font-weight="bold" font-size="20px" font-family="'Shantell Sans', cursive"><tspan x="16.59" y="35" dominant-baseline="ideographic">Maximize </tspan><tspan x="41.18" y="59" dominant-baseline="ideographic">Yield</tspan></text></g></g></g><g id="g-root-tx_focusons_1uool2ip1d79e-fill" data-item-order="0" transform="translate(453, 891)"><g id="tx_focusons_1uool2ip1d79e-fill" stroke="none" fill="#f4f4f4"><g><text style="font: 15px &quot;Shantell Sans&quot;, cursive; white-space: pre;" font-size="15px" font-family="'Shantell Sans', cursive"><tspan x="47.82" y="29" dominant-baseline="ideographic">Focus on </tspan><tspan x="33.37" y="47" dominant-baseline="ideographic">strategies to </tspan><tspan x="14.59" y="65" dominant-baseline="ideographic">enhance the yield </tspan><tspan x="45.48" y="83" dominant-baseline="ideographic">from BTC.</tspan></text></g></g></g><g id="g-root-1.g-1_fr_zpotkap1elfn-stroke" data-item-order="-942470" transform="translate(525, 153)"><g id="1.g-1_fr_zpotkap1elfn-stroke" fill="none" stroke-linecap="round" stroke-linejoin="round" stroke-miterlimit="4" stroke="#2b2d31" stroke-width="2"><g><path d="M 88.7498 250.2328C 91.2371 244.2278 95.1619 239.2537 99.9602 235.5441C 109.8397 227.9062 123.4222 225.6285 135.786 230.7498C 154.1548 238.3584 162.8777 259.4172 155.2691 277.786C 151.4014 287.1235 144.058 293.9685 135.3592 297.4427C 126.9457 300.803 117.2641 301.01 108.2328 297.2691C 89.864 289.6605 81.1411 268.6016 88.7498 250.2328ZM 328 328C 328 250.5016 300.2774 179.4782 254.2081 124.3057C 198.2638 57.3069 115.2644 13.6827 22 10.2227L 22 177.6632C 22 190.0639 31.5498 200.1855 43.5266 203.4001C 65.0907 209.188 84.4241 220.4249 99.9602 235.5441C 109.8397 227.9062 123.4222 225.6285 135.786 230.7498C 154.1548 238.3584 162.8777 259.4172 155.2691 277.786C 151.4014 287.1235 144.058 293.9685 135.3592 297.4427C 137.7388 307.2388 139 317.4723 139 328.0004C 139 339.6556 137.4543 350.9497 134.5567 361.689C 131.3183 373.6916 135.3032 387.0652 146.0695 393.2811L 291.0209 476.9688C 291.1262 476.7706 291.231 476.5722 291.3359 476.3737C 292.5258 474.1223 293.6894 471.8547 294.8264 469.5716C 295.0164 469.1901 295.2056 468.8082 295.3941 468.4258C 316.2713 426.0767 328 378.408 328 328ZM 10 10C 108.1282 10 195.8754 54.4464 254.2081 124.3057M 285.1674 487.5C 287.2953 483.837 289.352 480.1276 291.3359 476.3737"></path></g></g></g><g id="g-root-2.g-2_fr_1hi7s8ap1el8l-stroke" data-item-order="-942466" transform="translate(249.54299926757812, 553.3200073242188)"><g id="2.g-2_fr_1hi7s8ap1el8l-stroke" fill="none" stroke-linecap="round" stroke-linejoin="round" stroke-miterlimit="4" stroke="#2c2e29" stroke-width="2"><g><path d="M 252.207 42.9131C 259.8156 24.5443 280.8745 15.8214 299.2433 23.43C 311.4519 28.487 319.3995 39.4856 321.1231 51.6869C 321.9928 57.8434 321.2779 64.3061 318.7263 70.4663C 311.1177 88.8351 290.0589 97.558 271.6901 89.9494C 256.2019 83.534 247.5715 67.5561 249.8066 51.6913C 250.2223 48.7406 251.0138 45.7938 252.207 42.9131ZM 200.4924 234.203C 227.5383 241.6834 256.0311 245.6803 285.4573 245.6803C 398.6793 245.6803 498.0812 186.5095 554.4261 97.4037L 409.2509 13.5868C 398.5586 7.4136 385.0801 10.558 376.316 19.2542C 361.1402 34.3123 342.2417 45.624 321.1231 51.6869C 321.9928 57.8434 321.2779 64.3061 318.7263 70.4663C 311.1177 88.8351 290.0589 97.558 271.6901 89.9494C 256.2019 83.534 247.5715 67.5561 249.8066 51.6913C 228.5445 45.59 209.5321 34.1685 194.3028 18.9598C 185.5414 10.2102 172.0214 7.0293 161.2982 13.2203L 16.2212 96.9805C 57.9103 163.1389 123.3103 212.8558 200.4924 234.203ZM 285.4573 245.6803C 402.9557 245.6803 505.5702 181.9549 560.6247 87.1803M 10 86.6803C 51.2378 157.9681 119.3546 211.7617 200.4924 234.203"></path></g></g></g><g id="g-root-3.g-3_fr_147dqy2p1ejnr-stroke" data-item-order="-942462" transform="translate(207, 153)"><g id="3.g-3_fr_147dqy2p1ejnr-stroke" fill="none" stroke-linecap="round" stroke-linejoin="round" stroke-miterlimit="4" stroke="#292d2f" stroke-width="2"><g><path d="M 181.7498 250.2328C 189.3584 231.864 210.4172 223.1411 228.786 230.7498C 232.0403 232.0977 234.9918 233.8678 237.6034 235.9703C 249.733 245.7356 254.5297 262.6715 248.2691 277.786C 240.8427 295.7148 220.6028 304.4542 202.5573 297.7878C 202.1144 297.6242 201.6729 297.4513 201.2328 297.2691C 182.864 289.6605 174.1411 268.6016 181.7498 250.2328ZM 295.4864 11.6418C 135.1329 27.9266 10 163.3501 10 328C 10 381.6484 23.285 432.1939 46.7447 476.5262L 191.7944 392.7819C 202.5295 386.584 206.5257 373.265 203.3355 361.2867C 200.5074 350.6676 199 339.5098 199 328C 199 317.5956 200.2317 307.479 202.5573 297.7878C 202.1144 297.6242 201.6729 297.4513 201.2328 297.2691C 182.864 289.6605 174.1411 268.6016 181.7498 250.2328C 189.3584 231.864 210.4172 223.1411 228.786 230.7498C 232.0403 232.0977 234.9918 233.8678 237.6034 235.9703C 253.2132 220.6358 272.7069 209.2419 294.4734 203.3997C 306.4502 200.1851 316 190.0634 316 177.6628L 316 10.2222C 309.1037 10.4781 302.2636 10.9535 295.4864 11.6418ZM 10 328C 10 385.9217 25.4857 440.2264 52.5427 487M 328 10C 317.0233 10 306.1766 10.5561 295.4864 11.6418"></path></g></g></g><g id="g-root-tx_btcyield_959p62p1ekg1-stroke" data-item-order="0" transform="translate(339, 39)"></g><g id="g-root-tx_earnsust_18gc4a2p1d7gv-stroke" data-item-order="0" transform="translate(75, 159)"></g><g id="g-root-tx_restakeb_zjg5uyp1d6v9-stroke" data-item-order="0" transform="translate(843, 171)"></g><g id="g-root-tx_initiate_1ilyip1d7ny-stroke" data-item-order="0" transform="translate(843, 207)"></g><g id="g-root-tx_achievea_qpokvep1d6o8-stroke" data-item-order="0" transform="translate(63, 243)"></g><g id="g-root-conv_8wj54ap14rnu-stroke" data-item-order="0" transform="translate(303, 339)"><g id="conv_8wj54ap14rnu-stroke" fill="none" stroke-linecap="round" stroke-linejoin="round" stroke-miterlimit="4" stroke="#1ac3fb" stroke-width="2"><g><path d="M 41 39.5C 41.276142 39.5 41.5 39.723858 41.5 40M 40.5 40C 40.5 39.723858 40.723858 39.5 41 39.5M 41 40.5C 40.723858 40.5 40.5 40.276142 40.5 40M 41.5 40C 41.5 40.276142 41.276142 40.5 41 40.5M 38 17L 45 17C 49.418278 17 53 20.581722 53 25L 53 31M 42 21L 38 17L 42 13M 29 51L 23 51C 18.581722 51 15 47.418278 15 43L 15 37M 25 47L 29 51L 25 55M 45 51L 45 43C 45 41.895432 45.895432 41 47 41L 49 41M 45 47L 48 47M 18 18.5C 18.276142 18.5 18.5 18.723858 18.5 19M 17.5 19C 17.5 18.723858 17.723858 18.5 18 18.5M 18 19.5C 17.723858 19.5 17.5 19.276142 17.5 19M 18.5 19C 18.5 19.276142 18.276142 19.5 18 19.5M 25 19C 22.790861 19 21 20.790861 21 23L 21 25C 21 27.209139 22.790861 29 25 29M 11 23C 11 29.627417 16.372583 35 23 35C 29.627417 35 35 29.627417 35 23C 35 16.372583 29.627417 11 23 11C 16.372583 11 11 16.372583 11 23ZM 33 45C 33 51.627419 38.372581 57 45 57C 51.627419 57 57 51.627419 57 45C 57 38.372581 51.627419 33 45 33C 38.372581 33 33 38.372581 33 45Z"></path></g></g></g><g id="g-root-1_8yeh7up1fzf1-stroke" data-item-order="0" transform="translate(699, 339)"><g id="1_8yeh7up1fzf1-stroke" fill="none" stroke-linecap="round" stroke-linejoin="round" stroke-miterlimit="4" stroke="#4f91fc" stroke-width="2"><g><path d="M 52.919998 16L 45.080002 16.139999L 45 22.9M 14.02 52L 22.939999 51.860001L 23 45.119999M 45.080002 16.139999C 53.037376 21.098352 56.748817 30.727245 54.177998 39.743675C 51.607182 48.760105 43.375759 54.983776 34 55C 32.493622 55.003963 30.991343 54.843002 29.52 54.52M 22.939999 51.860001C 14.954777 46.921204 11.21822 37.281937 13.7884 28.25145C 16.35858 19.220963 24.610886 12.993864 34 13C 35.493107 12.997032 36.982025 13.157997 38.440002 13.48M 41 29C 41 31.209139 39.209137 33 37 33L 29 33L 29 25L 37 25C 39.209137 25 41 26.790861 41 29ZM 41 37C 41 39.209137 39.209137 41 37 41L 29 41L 29 33L 37 33C 39.209137 33 41 34.790863 41 37ZM 37 22L 37 25M 37 41L 37 44M 41 29C 41 31.209139 39.209137 33 37 33L 29 33L 29 25L 37 25C 39.209137 25 41 26.790861 41 29ZM 41 37C 41 39.209137 39.209137 41 37 41L 29 41L 29 33L 37 33C 39.209137 33 41 34.790863 41 37ZM 37 22L 37 25M 37 41L 37 44M 32 22L 32 25M 32 41L 32 44M 32 22L 32 25M 32 41L 32 44"></path></g></g></g><g id="g-root-tx_3_zkp0vep1fzf0-stroke" data-item-order="0" transform="translate(394, 389)"></g><g id="g-root-tx_1_hs627ep1fzm2-stroke" data-item-order="0" transform="translate(626, 389)"></g><g id="g-root-tx_2_1cvj25mp1g0zv-stroke" data-item-order="0" transform="translate(507, 583)"></g><g id="g-root-micr_hwjgyyp1acjo-stroke" data-item-order="0" transform="translate(501, 675)"><g id="micr_hwjgyyp1acjo-stroke" fill="none" stroke-linecap="round" stroke-linejoin="round" stroke-miterlimit="4" stroke="#a6da37" stroke-width="2"><g><path d="M 21 15L 29 15M 39 15L 46 15M 28.5 15L 39.5 15L 39.5 53L 28.5 53ZM 57 53L 46 53L 46 15L 57 26L 57 53ZM 11 15L 22 15L 22 53L 11 53ZM 22 27L 28.5 27M 39.5 27L 46 27"></path></g></g></g><g id="g-root-tx_maximize_8z11gqp1d5vl-stroke" data-item-order="0" transform="translate(465, 831)"></g><g id="g-root-tx_focusons_1uool2ip1d79e-stroke" data-item-order="0" transform="translate(453, 891)"></g></g></g></svg>