<?xml version="1.0" encoding="utf-8" standalone="yes"?>
<!DOCTYPE svg PUBLIC "-//W3C//DTD SVG 1.1//EN" "http://www.w3.org/Graphics/SVG/1.1/DTD/svg11.dtd">
<svg width="926" height="734" viewBox="0 0 926 734" style="fill:none;stroke:none;fill-rule:evenodd;clip-rule:evenodd;stroke-linecap:round;stroke-linejoin:round;stroke-miterlimit:1.5;" version="1.1" xmlns="http://www.w3.org/2000/svg" xmlns:xlink="http://www.w3.org/1999/xlink"><style class="text-font-style fontImports" data-font-family="Roboto">@import url('https://fonts.googleapis.com/css2?family=Roboto:wght@400;700&amp;display=block');</style><style class="text-font-style fontImports" data-font-family="Roboto Mono">@import url('https://fonts.googleapis.com/css2?family=Roboto+Mono:wght@400;700&amp;display=block');</style><g id="items" style="isolation: isolate"><g id="blend" style="mix-blend-mode: normal"><g id="g-root-5.g-5_fr_magbl3154h81s-fill" data-item-order="-599176" transform="translate(357, 533)"><g id="5.g-5_fr_magbl3154h81s-fill" stroke="none" fill="#fb6762"><g><path d="M 268 126C 300.033 126 326 100.0325 326 68C 326 35.9675 300.033 10 268 10C 255.693 10 244.566 14.0829 235.22 21C 234.838 21.2828 234.459 21.5701 234.083 21.8618C 219.738 33.0072 210.264 50.5977 210.5 68C 210.5 85.2686 219.977 102.9885 234.49 114.219C 235.63 115.101 236.801 115.942 238 116.741C 246.737 122.556 256.9 126 268 126ZM 268 116C 294.51 116 316 94.5097 316 68C 316 41.4903 294.51 20 268 20C 241.49 20 220 41.4903 220 68C 220 94.5097 241.49 116 268 116ZM 58 20C 31.4903 20 10 41.4903 10 68C 10 94.5097 31.4903 116 58 116C 70.9972 116 82.6127 110.646 91.0489 102.191C 92.8842 100.3516 94.507 98.4277 96.0303 96.3103C 106.6105 81.3275 107.6492 63.4431 101.6397 48.8855C 99.184 42.966 95.6311 37.737 91.1629 33.3714C 82.6671 25.0708 70.9732 20 58 20ZM 96 68C 96 88.9868 78.9868 106 58 106C 37.0132 106 20 88.9868 20 68C 20 47.0132 37.0132 30 58 30C 78.9868 30 96 47.0132 96 68ZM 159 50.4999C 117 50.4999 91.1629 33.3714 91.1629 33.3714C 95.6311 37.737 99.184 42.966 101.6397 48.8855C 107.6492 63.4431 106.6105 81.3275 96.0303 96.3103C 94.507 98.4277 92.8842 100.3516 91.0489 102.191C 91.0489 102.191 117 86.0233 159 86.0233C 189.914 85.1966 223.707 106.731 234.49 114.219C 219.977 102.9885 210.5 85.2686 210.5 68C 210.264 50.5977 219.738 33.0072 234.083 21.8618C 227.428 26.8141 192.634 51.3994 159 50.4999Z"></path></g></g></g><g id="g-root-5.ar-with-terminator_fr_8zmaav154h6gy-fill" data-item-order="-599171" transform="translate(231, 584.5)"></g><g id="g-root-4.g-4_fr_3za1z154h79o-fill" data-item-order="-599166" transform="translate(231, 413)"><g id="4.g-4_fr_3za1z154h79o-fill" stroke="none" fill="#1ac3fb"><g><path d="M 68 10C 35.9675 10 10 35.9675 10 68C 10 100.0325 35.9675 126 68 126C 80.3073 126 91.4342 121.917 100.7803 115C 101.1624 114.717 101.5412 114.43 101.9167 114.138C 116.262 102.9928 125.736 85.4023 125.5 68C 125.5 50.7314 116.023 33.0115 101.5096 21.7811C 100.37 20.8994 99.1995 20.0576 98 19.2593C 89.2633 13.4441 79.0997 10 68 10ZM 68 20C 41.4903 20 20 41.4903 20 68C 20 94.5097 41.4903 116 68 116C 94.5097 116 116 94.5097 116 68C 116 41.4903 94.5097 20 68 20ZM 278 116C 304.51 116 326 94.5097 326 68C 326 41.4903 304.51 20 278 20C 265.003 20 253.387 25.3537 244.951 33.809C 243.116 35.6484 241.493 37.5723 239.97 39.6897C 229.389 54.6725 228.351 72.5569 234.36 87.1145C 236.816 93.034 240.369 98.263 244.837 102.6286C 253.333 110.929 265.027 116 278 116ZM 240 68C 240 47.0132 257.013 30 278 30C 298.987 30 316 47.0132 316 68C 316 88.9868 298.987 106 278 106C 257.013 106 240 88.9868 240 68ZM 177 85.5001C 219 85.5001 244.837 102.6286 244.837 102.6286C 240.369 98.263 236.816 93.034 234.36 87.1145C 228.351 72.5569 229.389 54.6725 239.97 39.6897C 241.493 37.5723 243.116 35.6484 244.951 33.809C 244.951 33.809 219 49.9767 177 49.9767C 146.086 50.8034 112.293 29.269 101.5096 21.7811C 116.023 33.0115 125.5 50.7314 125.5 68C 125.736 85.4023 116.262 102.9928 101.9167 114.138C 108.5725 109.1859 143.366 84.6006 177 85.5001Z"></path></g></g></g><g id="g-root-4.ar-with-terminator_1_fr_1up9twn154h7uu-fill" data-item-order="-599161" transform="translate(565, 464.5)"></g><g id="g-root-3.g-3_fr_1hefsmf154h6a0-fill" data-item-order="-599156" transform="translate(359, 293)"><g id="3.g-3_fr_1hefsmf154h6a0-fill" stroke="none" fill="#f79438"><g><path d="M 268 126C 300.033 126 326 100.0325 326 68C 326 35.9675 300.033 10 268 10C 255.693 10 244.566 14.0829 235.22 21C 234.838 21.2828 234.459 21.5701 234.083 21.8618C 219.738 33.0072 210.264 50.5977 210.5 68C 210.5 85.2686 219.977 102.9885 234.49 114.219C 235.63 115.101 236.801 115.942 238 116.741C 246.737 122.556 256.9 126 268 126ZM 268 116C 294.51 116 316 94.5097 316 68C 316 41.4903 294.51 20 268 20C 241.49 20 220 41.4903 220 68C 220 94.5097 241.49 116 268 116ZM 58 20C 31.4903 20 10 41.4903 10 68C 10 94.5097 31.4903 116 58 116C 70.9972 116 82.6127 110.646 91.0489 102.191C 92.8842 100.3516 94.507 98.4277 96.0303 96.3103C 106.6105 81.3275 107.6492 63.4431 101.6397 48.8855C 99.184 42.966 95.6311 37.737 91.1629 33.3714C 82.6671 25.0708 70.9732 20 58 20ZM 96 68C 96 88.9868 78.9868 106 58 106C 37.0132 106 20 88.9868 20 68C 20 47.0132 37.0132 30 58 30C 78.9868 30 96 47.0132 96 68ZM 159 50.4999C 117 50.4999 91.1629 33.3714 91.1629 33.3714C 95.6311 37.737 99.184 42.966 101.6397 48.8855C 107.6492 63.4431 106.6105 81.3275 96.0303 96.3103C 94.507 98.4277 92.8842 100.3516 91.0489 102.191C 91.0489 102.191 117 86.0233 159 86.0233C 189.914 85.1966 223.707 106.731 234.49 114.219C 219.977 102.9885 210.5 85.2686 210.5 68C 210.264 50.5977 219.738 33.0072 234.083 21.8618C 227.428 26.8141 192.634 51.3994 159 50.4999Z"></path></g></g></g><g id="g-root-3.ar-with-terminator_2_fr_1cymahz154h72a-fill" data-item-order="-599151" transform="translate(231, 344.5)"></g><g id="g-root-2.g-2_fr_142za93154h7v0-fill" data-item-order="-599146" transform="translate(231, 173)"><g id="2.g-2_fr_142za93154h7v0-fill" stroke="none" fill="#8769fd"><g><path d="M 68 10C 35.9675 10 10 35.9675 10 68C 10 100.0325 35.9675 126 68 126C 80.3073 126 91.4342 121.917 100.7803 115C 101.1624 114.717 101.5412 114.43 101.9167 114.138C 116.262 102.9928 125.736 85.4023 125.5 68C 125.5 50.7314 116.023 33.0115 101.5096 21.7811C 100.37 20.8994 99.1995 20.0576 98 19.2593C 89.2633 13.4441 79.0997 10 68 10ZM 68 20C 41.4903 20 20 41.4903 20 68C 20 94.5097 41.4903 116 68 116C 94.5097 116 116 94.5097 116 68C 116 41.4903 94.5097 20 68 20ZM 278 116C 304.51 116 326 94.5097 326 68C 326 41.4903 304.51 20 278 20C 265.003 20 253.387 25.3537 244.951 33.809C 243.116 35.6484 241.493 37.5723 239.97 39.6897C 229.389 54.6725 228.351 72.5569 234.36 87.1145C 236.816 93.034 240.369 98.263 244.837 102.6286C 253.333 110.929 265.027 116 278 116ZM 240 68C 240 47.0132 257.013 30 278 30C 298.987 30 316 47.0132 316 68C 316 88.9868 298.987 106 278 106C 257.013 106 240 88.9868 240 68ZM 177 85.5001C 219 85.5001 244.837 102.6286 244.837 102.6286C 240.369 98.263 236.816 93.034 234.36 87.1145C 228.351 72.5569 229.389 54.6725 239.97 39.6897C 241.493 37.5723 243.116 35.6484 244.951 33.809C 244.951 33.809 219 49.9767 177 49.9767C 146.086 50.8034 112.293 29.269 101.5096 21.7811C 116.023 33.0115 125.5 50.7314 125.5 68C 125.736 85.4023 116.262 102.9928 101.9167 114.138C 108.5725 109.1859 143.366 84.6006 177 85.5001Z"></path></g></g></g><g id="g-root-2.ar-with-terminator_3_fr_zn5s4n154h8na-fill" data-item-order="-599141" transform="translate(565, 224.5)"></g><g id="g-root-1.g-1_fr_v7yr3b154h69s-fill" data-item-order="-599136" transform="translate(359, 53)"><g id="1.g-1_fr_v7yr3b154h69s-fill" stroke="none" fill="#43dd93"><g><path d="M 268 126C 300.033 126 326 100.0325 326 68C 326 35.9675 300.033 10 268 10C 255.693 10 244.566 14.0829 235.22 21C 234.838 21.2828 234.459 21.5701 234.083 21.8618C 219.738 33.0072 210.264 50.5977 210.5 68C 210.5 85.2686 219.977 102.9885 234.49 114.219C 235.63 115.101 236.801 115.942 238 116.741C 246.737 122.556 256.9 126 268 126ZM 268 116C 294.51 116 316 94.5097 316 68C 316 41.4903 294.51 20 268 20C 241.49 20 220 41.4903 220 68C 220 94.5097 241.49 116 268 116ZM 58 20C 31.4903 20 10 41.4903 10 68C 10 94.5097 31.4903 116 58 116C 70.9972 116 82.6127 110.646 91.0489 102.191C 92.8842 100.3516 94.507 98.4277 96.0303 96.3103C 106.6105 81.3275 107.6492 63.4431 101.6397 48.8855C 99.184 42.966 95.6311 37.737 91.1629 33.3714C 82.6671 25.0708 70.9732 20 58 20ZM 96 68C 96 88.9868 78.9868 106 58 106C 37.0132 106 20 88.9868 20 68C 20 47.0132 37.0132 30 58 30C 78.9868 30 96 47.0132 96 68ZM 159 50.4999C 117 50.4999 91.1629 33.3714 91.1629 33.3714C 95.6311 37.737 99.184 42.966 101.6397 48.8855C 107.6492 63.4431 106.6105 81.3275 96.0303 96.3103C 94.507 98.4277 92.8842 100.3516 91.0489 102.191C 91.0489 102.191 117 86.0233 159 86.0233C 189.914 85.1966 223.707 106.731 234.49 114.219C 219.977 102.9885 210.5 85.2686 210.5 68C 210.264 50.5977 219.738 33.0072 234.083 21.8618C 227.428 26.8141 192.634 51.3994 159 50.4999Z"></path></g></g></g><g id="g-root-1.ar-with-terminator_4_fr_mcbquf154h72i-fill" data-item-order="-599131" transform="translate(231, 104.5)"></g><g id="g-root-tx_layer2_vb34iv154h7gg-fill" data-item-order="0" transform="translate(699, 219)"><g id="tx_layer2_vb34iv154h7gg-fill" stroke="none" fill="#8769fd"><g><text style="font: bold 20px &quot;Roboto Mono&quot;, monospace; white-space: pre;" font-weight="bold" font-size="20px" font-family="'Roboto Mono', monospace"><tspan x="12" y="35" dominant-baseline="ideographic">Layer 2</tspan></text></g></g></g><g id="g-root-tx_lendingy_i0938n154h5vl-fill" data-item-order="0" transform="translate(699, 255)"><g id="tx_lendingy_i0938n154h5vl-fill" stroke="none" fill="#f4f4f4"><g><text style="font: 15px &quot;Roboto Mono&quot;, monospace; white-space: pre;" font-size="15px" font-family="'Roboto Mono', monospace"><tspan x="12" y="29" dominant-baseline="ideographic">Lending Yield from </tspan><tspan x="12" y="47" dominant-baseline="ideographic">Aave/Compound</tspan></text></g></g></g><g id="g-root-incr_143lrc7154o9op-fill" data-item-order="0" transform="translate(475, 207)"></g><g id="g-root-tx_layer3_146q4rr154h5vy-fill" data-item-order="0" transform="translate(111, 339)"><g id="tx_layer3_146q4rr154h5vy-fill" stroke="none" fill="#f79438"><g><text style="font: bold 20px &quot;Roboto Mono&quot;, monospace; white-space: pre;" font-weight="bold" font-size="20px" font-family="'Roboto Mono', monospace"><tspan x="19.98" y="35" dominant-baseline="ideographic">Layer 3</tspan></text></g></g></g><g id="g-root-colu_18n63zb154mtj4-fill" data-item-order="0" transform="translate(383, 327)"></g><g id="g-root-tx_3_me763r154h62w-fill" data-item-order="0" transform="translate(271, 219)"><g id="tx_3_me763r154h62w-fill" stroke="none" fill="#8769fd"><g><text style="font: bold 20px Roboto, sans-serif; white-space: pre;" font-weight="bold" font-size="20px" font-family="Roboto, sans-serif"><tspan x="14.87" y="34" dominant-baseline="ideographic">3%</tspan></text></g></g></g><g id="g-root-tx_2_zp17dz154h7nr-fill" data-item-order="0" transform="translate(599, 339)"><g id="tx_2_zp17dz154h7nr-fill" stroke="none" fill="#f79438"><g><text style="font: bold 20px Roboto, sans-serif; white-space: pre;" font-weight="bold" font-size="20px" font-family="Roboto, sans-serif"><tspan x="14.87" y="34" dominant-baseline="ideographic">2%</tspan></text></g></g></g><g id="g-root-tx_restakin_zqwmnb154h6o7-fill" data-item-order="0" transform="translate(63, 375)"><g id="tx_restakin_zqwmnb154h6o7-fill" stroke="none" fill="#f4f4f4"><g><text style="font: 15px &quot;Roboto Mono&quot;, monospace; white-space: pre;" font-size="15px" font-family="'Roboto Mono', monospace"><tspan x="16.97" y="29" dominant-baseline="ideographic">Restaking Yield </tspan><tspan x="25.97" y="47" dominant-baseline="ideographic">via EigenLayer</tspan></text></g></g></g><g id="g-root-tx_basestak_1qeg4h3154h8ub-fill" data-item-order="0" transform="translate(51, 135)"><g id="tx_basestak_1qeg4h3154h8ub-fill" stroke="none" fill="#f4f4f4"><g><text style="font: 15px &quot;Roboto Mono&quot;, monospace; white-space: pre;" font-size="15px" font-family="'Roboto Mono', monospace"><tspan x="19.97" y="29" dominant-baseline="ideographic">Base Staking APY </tspan><tspan x="55.97" y="47" dominant-baseline="ideographic">from staking</tspan></text></g></g></g><g id="g-root-tx_15_144upif154h6vi-fill" data-item-order="0" transform="translate(265, 459)"><g id="tx_15_144upif154h6vi-fill" stroke="none" fill="#1ac3fb"><g><text style="font: bold 20px Roboto, sans-serif; white-space: pre;" font-weight="bold" font-size="20px" font-family="Roboto, sans-serif"><tspan x="12.23" y="34" dominant-baseline="ideographic">1.5%</tspan></text></g></g></g><g id="g-root-shar_5upbb154ikgd-fill" data-item-order="0" transform="translate(475, 447)"></g><g id="g-root-tx_5_hydnzb154h6v5-fill" data-item-order="0" transform="translate(599, 99)"><g id="tx_5_hydnzb154h6v5-fill" stroke="none" fill="#43dd93"><g><text style="font: bold 20px Roboto, sans-serif; white-space: pre;" font-weight="bold" font-size="20px" font-family="Roboto, sans-serif"><tspan x="14.87" y="34" dominant-baseline="ideographic">5%</tspan></text></g></g></g><g id="g-root-tx_layer4_1qd76av154h6o4-fill" data-item-order="0" transform="translate(699, 459)"><g id="tx_layer4_1qd76av154h6o4-fill" stroke="none" fill="#1ac3fb"><g><text style="font: bold 20px &quot;Roboto Mono&quot;, monospace; white-space: pre;" font-weight="bold" font-size="20px" font-family="'Roboto Mono', monospace"><tspan x="12" y="35" dominant-baseline="ideographic">Layer 4</tspan></text></g></g></g><g id="g-root-tx_borrowin_1d1qnxj154h891-fill" data-item-order="0" transform="translate(699, 495)"><g id="tx_borrowin_1d1qnxj154h891-fill" stroke="none" fill="#f4f4f4"><g><text style="font: 15px &quot;Roboto Mono&quot;, monospace; white-space: pre;" font-size="15px" font-family="'Roboto Mono', monospace"><tspan x="12" y="32" dominant-baseline="ideographic">Borrowing </tspan><tspan x="12" y="50" dominant-baseline="ideographic">Optimization from </tspan><tspan x="12" y="68" dominant-baseline="ideographic">stablecoin</tspan></text></g></g></g><g id="g-root-form_1umrxk7154pmo2-fill" data-item-order="0" transform="translate(383, 87)"></g><g id="g-root-tx_totalapy_92qnqf154h7nu-fill" data-item-order="0" transform="translate(87, 579)"><g id="tx_totalapy_92qnqf154h7nu-fill" stroke="none" fill="#fb6762"><g><text style="font: bold 20px &quot;Roboto Mono&quot;, monospace; white-space: pre;" font-weight="bold" font-size="20px" font-family="'Roboto Mono', monospace"><tspan x="19.97" y="35" dominant-baseline="ideographic">Total APY</tspan></text></g></g></g><g id="g-root-1_1hjflbb154h6h8-fill" data-item-order="0" transform="translate(383, 567)"></g><g id="g-root-tx_projecte_1ut0ofb154h5vv-fill" data-item-order="0" transform="translate(39, 615)"><g id="tx_projecte_1ut0ofb154h5vv-fill" stroke="none" fill="#f4f4f4"><g><text style="font: 15px &quot;Roboto Mono&quot;, monospace; white-space: pre;" font-size="15px" font-family="'Roboto Mono', monospace"><tspan x="13.97" y="29" dominant-baseline="ideographic">Projected combined </tspan><tspan x="67.97" y="47" dominant-baseline="ideographic">annual yield</tspan></text></g></g></g><g id="g-root-tx_115_1hfoqsn154h8gd-fill" data-item-order="0" transform="translate(587, 579)"><g id="tx_115_1hfoqsn154h8gd-fill" stroke="none" fill="#fb6762"><g><text style="font: bold 20px Roboto, sans-serif; white-space: pre;" font-weight="bold" font-size="20px" font-family="Roboto, sans-serif"><tspan x="12.49" y="34" dominant-baseline="ideographic">11.5%</tspan></text></g></g></g><g id="g-root-tx_layer1_4oskvb154h7gi-fill" data-item-order="0" transform="translate(111, 99)"><g id="tx_layer1_4oskvb154h7gi-fill" stroke="none" fill="#43dd93"><g><text style="font: bold 20px &quot;Roboto Mono&quot;, monospace; white-space: pre;" font-weight="bold" font-size="20px" font-family="'Roboto Mono', monospace"><tspan x="19.98" y="35" dominant-baseline="ideographic">Layer 1</tspan></text></g></g></g><g id="g-root-5.g-5_fr_magbl3154h81s-stroke" data-item-order="-599176" transform="translate(357, 533)"><g id="5.g-5_fr_magbl3154h81s-stroke" fill="none" stroke-linecap="round" stroke-linejoin="round" stroke-miterlimit="4" stroke="#2c2c2c" stroke-width="2"><g><path d="M 268 126C 300.0325 126 326 100.0325 326 68C 326 35.9675 300.0325 10 268 10C 255.6927 10 244.5658 14.0828 235.2197 21C 234.8376 21.2828 234.4588 21.5701 234.0833 21.8618C 219.7379 33.0072 210.2643 50.5977 210.5 68C 210.5 85.2686 219.9769 102.9885 234.4904 114.2189C 235.63 115.1006 236.8005 115.9424 238 116.7407C 246.7367 122.5559 256.9003 126 268 126ZM 268 116C 294.5097 116 316 94.5097 316 68C 316 41.4903 294.5097 20 268 20C 241.4903 20 220 41.4903 220 68C 220 94.5097 241.4903 116 268 116ZM 58 20C 31.4903 20 10 41.4903 10 68C 10 94.5097 31.4903 116 58 116C 70.9972 116 82.6127 110.6463 91.0489 102.191C 92.8842 100.3516 94.507 98.4277 96.0303 96.3103C 106.6105 81.3275 107.6492 63.4431 101.6397 48.8855C 99.184 42.966 95.6311 37.737 91.1629 33.3714C 82.6671 25.0708 70.9732 20 58 20ZM 96 68C 96 88.9868 78.9868 106 58 106C 37.0132 106 20 88.9868 20 68C 20 47.0132 37.0132 30 58 30C 78.9868 30 96 47.0132 96 68ZM 159 50.4999C 117 50.4999 91.1629 33.3714 91.1629 33.3714C 95.6311 37.737 99.184 42.966 101.6397 48.8855C 107.6492 63.4431 106.6105 81.3275 96.0303 96.3103C 94.507 98.4277 92.8842 100.3516 91.0489 102.191C 91.0489 102.191 117 86.0233 159 86.0233C 189.9136 85.1966 223.7071 106.731 234.4904 114.2189C 219.9769 102.9885 210.5 85.2686 210.5 68C 210.2643 50.5977 219.7379 33.0072 234.0833 21.8618C 227.4275 26.8141 192.634 51.3994 159 50.4999ZM 238 116.7407C 238 116.7407 236.7507 115.7884 234.4904 114.2189M 235.2197 21C 235.2197 21 234.8272 21.3083 234.0833 21.8618"></path></g></g></g><g id="g-root-5.ar-with-terminator_fr_8zmaav154h6gy-stroke" data-item-order="-599171" transform="translate(231, 584.5)"><g id="5.ar-with-terminator_fr_8zmaav154h6gy-stroke" fill="none" stroke-linecap="round" stroke-linejoin="round" stroke-miterlimit="4" stroke="#f4f4f4" stroke-width="2"><g><path d="M 10 16.5L 120 16.5M 16.5 23L 10 16.5L 16.5 10"></path></g></g></g><g id="g-root-4.g-4_fr_3za1z154h79o-stroke" data-item-order="-599166" transform="translate(231, 413)"><g id="4.g-4_fr_3za1z154h79o-stroke" fill="none" stroke-linecap="round" stroke-linejoin="round" stroke-miterlimit="4" stroke="#2c2c2c" stroke-width="2"><g><path d="M 68 10C 35.9675 10 10 35.9675 10 68C 10 100.0325 35.9675 126 68 126C 80.3073 126 91.4342 121.9172 100.7803 115C 101.1624 114.7172 101.5412 114.4299 101.9167 114.1382C 116.2621 102.9928 125.7357 85.4023 125.5 68C 125.5 50.7314 116.0231 33.0115 101.5096 21.7811C 100.37 20.8994 99.1995 20.0576 98 19.2593C 89.2633 13.4441 79.0997 10 68 10ZM 68 20C 41.4903 20 20 41.4903 20 68C 20 94.5097 41.4903 116 68 116C 94.5097 116 116 94.5097 116 68C 116 41.4903 94.5097 20 68 20ZM 278 116C 304.5097 116 326 94.5097 326 68C 326 41.4903 304.5097 20 278 20C 265.0028 20 253.3873 25.3537 244.9511 33.809C 243.1158 35.6484 241.493 37.5723 239.9697 39.6897C 229.3895 54.6725 228.3508 72.5569 234.3603 87.1145C 236.816 93.034 240.3689 98.263 244.8371 102.6286C 253.3329 110.9292 265.0268 116 278 116ZM 240 68C 240 47.0132 257.0132 30 278 30C 298.9868 30 316 47.0132 316 68C 316 88.9868 298.9868 106 278 106C 257.0132 106 240 88.9868 240 68ZM 177 85.5001C 219 85.5001 244.8371 102.6286 244.8371 102.6286C 240.3689 98.263 236.816 93.034 234.3603 87.1145C 228.3508 72.5569 229.3895 54.6725 239.9697 39.6897C 241.493 37.5723 243.1158 35.6484 244.9511 33.809C 244.9511 33.809 219 49.9767 177 49.9767C 146.0864 50.8034 112.2929 29.269 101.5096 21.7811C 116.0231 33.0115 125.5 50.7314 125.5 68C 125.7357 85.4023 116.2621 102.9928 101.9167 114.1382C 108.5725 109.1859 143.366 84.6006 177 85.5001ZM 98 19.2593C 98 19.2593 99.2493 20.2116 101.5096 21.7811M 100.7803 115C 100.7803 115 101.1728 114.6917 101.9167 114.1382"></path></g></g></g><g id="g-root-4.ar-with-terminator_1_fr_1up9twn154h7uu-stroke" data-item-order="-599161" transform="translate(565, 464.5)"><g id="4.ar-with-terminator_1_fr_1up9twn154h7uu-stroke" fill="none" stroke-linecap="round" stroke-linejoin="round" stroke-miterlimit="4" stroke="#f4f4f4" stroke-width="2"><g><path d="M 120 16.5L 10 16.5M 113.5 23L 120 16.5L 113.5 10"></path></g></g></g><g id="g-root-3.g-3_fr_1hefsmf154h6a0-stroke" data-item-order="-599156" transform="translate(359, 293)"><g id="3.g-3_fr_1hefsmf154h6a0-stroke" fill="none" stroke-linecap="round" stroke-linejoin="round" stroke-miterlimit="4" stroke="#2c2c2c" stroke-width="2"><g><path d="M 268 126C 300.0325 126 326 100.0325 326 68C 326 35.9675 300.0325 10 268 10C 255.6927 10 244.5658 14.0828 235.2197 21C 234.8376 21.2828 234.4588 21.5701 234.0833 21.8618C 219.7379 33.0072 210.2643 50.5977 210.5 68C 210.5 85.2686 219.9769 102.9885 234.4904 114.2189C 235.63 115.1006 236.8005 115.9424 238 116.7407C 246.7367 122.5559 256.9003 126 268 126ZM 268 116C 294.5097 116 316 94.5097 316 68C 316 41.4903 294.5097 20 268 20C 241.4903 20 220 41.4903 220 68C 220 94.5097 241.4903 116 268 116ZM 58 20C 31.4903 20 10 41.4903 10 68C 10 94.5097 31.4903 116 58 116C 70.9972 116 82.6127 110.6463 91.0489 102.191C 92.8842 100.3516 94.507 98.4277 96.0303 96.3103C 106.6105 81.3275 107.6492 63.4431 101.6397 48.8855C 99.184 42.966 95.6311 37.737 91.1629 33.3714C 82.6671 25.0708 70.9732 20 58 20ZM 96 68C 96 88.9868 78.9868 106 58 106C 37.0132 106 20 88.9868 20 68C 20 47.0132 37.0132 30 58 30C 78.9868 30 96 47.0132 96 68ZM 159 50.4999C 117 50.4999 91.1629 33.3714 91.1629 33.3714C 95.6311 37.737 99.184 42.966 101.6397 48.8855C 107.6492 63.4431 106.6105 81.3275 96.0303 96.3103C 94.507 98.4277 92.8842 100.3516 91.0489 102.191C 91.0489 102.191 117 86.0233 159 86.0233C 189.9136 85.1966 223.7071 106.731 234.4904 114.2189C 219.9769 102.9885 210.5 85.2686 210.5 68C 210.2643 50.5977 219.7379 33.0072 234.0833 21.8618C 227.4275 26.8141 192.634 51.3994 159 50.4999ZM 238 116.7407C 238 116.7407 236.7507 115.7884 234.4904 114.2189M 235.2197 21C 235.2197 21 234.8272 21.3083 234.0833 21.8618"></path></g></g></g><g id="g-root-3.ar-with-terminator_2_fr_1cymahz154h72a-stroke" data-item-order="-599151" transform="translate(231, 344.5)"><g id="3.ar-with-terminator_2_fr_1cymahz154h72a-stroke" fill="none" stroke-linecap="round" stroke-linejoin="round" stroke-miterlimit="4" stroke="#f4f4f4" stroke-width="2"><g><path d="M 10 16.5L 120 16.5M 16.5 23L 10 16.5L 16.5 10"></path></g></g></g><g id="g-root-2.g-2_fr_142za93154h7v0-stroke" data-item-order="-599146" transform="translate(231, 173)"><g id="2.g-2_fr_142za93154h7v0-stroke" fill="none" stroke-linecap="round" stroke-linejoin="round" stroke-miterlimit="4" stroke="#2c2c2c" stroke-width="2"><g><path d="M 68 10C 35.9675 10 10 35.9675 10 68C 10 100.0325 35.9675 126 68 126C 80.3073 126 91.4342 121.9172 100.7803 115C 101.1624 114.7172 101.5412 114.4299 101.9167 114.1382C 116.2621 102.9928 125.7357 85.4023 125.5 68C 125.5 50.7314 116.0231 33.0115 101.5096 21.7811C 100.37 20.8994 99.1995 20.0576 98 19.2593C 89.2633 13.4441 79.0997 10 68 10ZM 68 20C 41.4903 20 20 41.4903 20 68C 20 94.5097 41.4903 116 68 116C 94.5097 116 116 94.5097 116 68C 116 41.4903 94.5097 20 68 20ZM 278 116C 304.5097 116 326 94.5097 326 68C 326 41.4903 304.5097 20 278 20C 265.0028 20 253.3873 25.3537 244.9511 33.809C 243.1158 35.6484 241.493 37.5723 239.9697 39.6897C 229.3895 54.6725 228.3508 72.5569 234.3603 87.1145C 236.816 93.034 240.3689 98.263 244.8371 102.6286C 253.3329 110.9292 265.0268 116 278 116ZM 240 68C 240 47.0132 257.0132 30 278 30C 298.9868 30 316 47.0132 316 68C 316 88.9868 298.9868 106 278 106C 257.0132 106 240 88.9868 240 68ZM 177 85.5001C 219 85.5001 244.8371 102.6286 244.8371 102.6286C 240.3689 98.263 236.816 93.034 234.3603 87.1145C 228.3508 72.5569 229.3895 54.6725 239.9697 39.6897C 241.493 37.5723 243.1158 35.6484 244.9511 33.809C 244.9511 33.809 219 49.9767 177 49.9767C 146.0864 50.8034 112.2929 29.269 101.5096 21.7811C 116.0231 33.0115 125.5 50.7314 125.5 68C 125.7357 85.4023 116.2621 102.9928 101.9167 114.1382C 108.5725 109.1859 143.366 84.6006 177 85.5001ZM 98 19.2593C 98 19.2593 99.2493 20.2116 101.5096 21.7811M 100.7803 115C 100.7803 115 101.1728 114.6917 101.9167 114.1382"></path></g></g></g><g id="g-root-2.ar-with-terminator_3_fr_zn5s4n154h8na-stroke" data-item-order="-599141" transform="translate(565, 224.5)"><g id="2.ar-with-terminator_3_fr_zn5s4n154h8na-stroke" fill="none" stroke-linecap="round" stroke-linejoin="round" stroke-miterlimit="4" stroke="#f4f4f4" stroke-width="2"><g><path d="M 120 16.5L 10 16.5M 113.5 23L 120 16.5L 113.5 10"></path></g></g></g><g id="g-root-1.g-1_fr_v7yr3b154h69s-stroke" data-item-order="-599136" transform="translate(359, 53)"><g id="1.g-1_fr_v7yr3b154h69s-stroke" fill="none" stroke-linecap="round" stroke-linejoin="round" stroke-miterlimit="4" stroke="#2c2c2c" stroke-width="2"><g><path d="M 268 126C 300.0325 126 326 100.0325 326 68C 326 35.9675 300.0325 10 268 10C 255.6927 10 244.5658 14.0828 235.2197 21C 234.8376 21.2828 234.4588 21.5701 234.0833 21.8618C 219.7379 33.0072 210.2643 50.5977 210.5 68C 210.5 85.2686 219.9769 102.9885 234.4904 114.2189C 235.63 115.1006 236.8005 115.9424 238 116.7407C 246.7367 122.5559 256.9003 126 268 126ZM 268 116C 294.5097 116 316 94.5097 316 68C 316 41.4903 294.5097 20 268 20C 241.4903 20 220 41.4903 220 68C 220 94.5097 241.4903 116 268 116ZM 58 20C 31.4903 20 10 41.4903 10 68C 10 94.5097 31.4903 116 58 116C 70.9972 116 82.6127 110.6463 91.0489 102.191C 92.8842 100.3516 94.507 98.4277 96.0303 96.3103C 106.6105 81.3275 107.6492 63.4431 101.6397 48.8855C 99.184 42.966 95.6311 37.737 91.1629 33.3714C 82.6671 25.0708 70.9732 20 58 20ZM 96 68C 96 88.9868 78.9868 106 58 106C 37.0132 106 20 88.9868 20 68C 20 47.0132 37.0132 30 58 30C 78.9868 30 96 47.0132 96 68ZM 159 50.4999C 117 50.4999 91.1629 33.3714 91.1629 33.3714C 95.6311 37.737 99.184 42.966 101.6397 48.8855C 107.6492 63.4431 106.6105 81.3275 96.0303 96.3103C 94.507 98.4277 92.8842 100.3516 91.0489 102.191C 91.0489 102.191 117 86.0233 159 86.0233C 189.9136 85.1966 223.7071 106.731 234.4904 114.2189C 219.9769 102.9885 210.5 85.2686 210.5 68C 210.2643 50.5977 219.7379 33.0072 234.0833 21.8618C 227.4275 26.8141 192.634 51.3994 159 50.4999ZM 238 116.7407C 238 116.7407 236.7507 115.7884 234.4904 114.2189M 235.2197 21C 235.2197 21 234.8272 21.3083 234.0833 21.8618"></path></g></g></g><g id="g-root-1.ar-with-terminator_4_fr_mcbquf154h72i-stroke" data-item-order="-599131" transform="translate(231, 104.5)"><g id="1.ar-with-terminator_4_fr_mcbquf154h72i-stroke" fill="none" stroke-linecap="round" stroke-linejoin="round" stroke-miterlimit="4" stroke="#f4f4f4" stroke-width="2"><g><path d="M 10 16.5L 120 16.5M 16.5 23L 10 16.5L 16.5 10"></path></g></g></g><g id="g-root-tx_layer2_vb34iv154h7gg-stroke" data-item-order="0" transform="translate(699, 219)"></g><g id="g-root-tx_lendingy_i0938n154h5vl-stroke" data-item-order="0" transform="translate(699, 255)"></g><g id="g-root-incr_143lrc7154o9op-stroke" data-item-order="0" transform="translate(475, 207)"><g id="incr_143lrc7154o9op-stroke" fill="none" stroke-linecap="round" stroke-linejoin="round" stroke-miterlimit="4" stroke="#8769fd" stroke-width="2"><g><path d="M 23 34L 23 18L 27 18C 29.209139 18 31 19.790861 31 22C 31 24.209139 29.209139 26 27 26L 23 26L 31 34M 57 44.993999L 57 35.993999L 48 35.993999M 57 36L 46.900002 46.102001C 45.72934 47.271725 44.011303 47.704884 42.425999 47.23L 31 44.172001C 29.447676 43.757683 27.792204 44.202038 26.656 45.337997L 15 57M 34.538002 38.334C 40.401291 34.274651 42.595951 26.648361 39.787205 20.093405C 36.978458 13.538448 29.942907 9.867234 22.959534 11.312573C 15.976161 12.757913 10.975831 18.920177 10.999718 26.051512C 11.023604 33.182846 16.065102 39.311478 23.058001 40.709999"></path></g></g></g><g id="g-root-tx_layer3_146q4rr154h5vy-stroke" data-item-order="0" transform="translate(111, 339)"></g><g id="g-root-colu_18n63zb154mtj4-stroke" data-item-order="0" transform="translate(383, 327)"><g id="colu_18n63zb154mtj4-stroke" fill="none" stroke-linecap="round" stroke-linejoin="round" stroke-miterlimit="4" stroke="#f79438" stroke-width="2"><g><path d="M 22.5 29.5L 11.5 29.5L 11.5 56.5L 22.5 56.5L 22.5 29.5ZM 11.5 38.5L 22.5 38.5M 39.5 29.5L 28.5 29.5L 28.5 56.5L 39.5 56.5L 39.5 29.5ZM 28.5 38.5L 39.5 38.5M 56.5 29.5L 45.5 29.5L 45.5 56.5L 56.5 56.5L 56.5 29.5ZM 45.5 38.5L 56.5 38.5M 11.5 47.5L 22.5 47.5M 28.5 47.5L 39.5 47.5M 45.5 47.5L 56.5 47.5M 17.1001 24.70002L 17.1001 19.5C 17.1001 15.1 20.7001 11.5 25.1001 11.5L 43.099998 11.5C 47.5 11.5 51.099998 15.1 51.099998 19.5L 51.099998 24.70002M 17.1001 24.70002L 12.5 20.09996M 17.1001 24.70002L 21.5 20.09996M 51.099998 24.70002L 46.5 20.09996M 51.099998 24.70002L 55.5 20.09996"></path></g></g></g><g id="g-root-tx_3_me763r154h62w-stroke" data-item-order="0" transform="translate(271, 219)"></g><g id="g-root-tx_2_zp17dz154h7nr-stroke" data-item-order="0" transform="translate(599, 339)"></g><g id="g-root-tx_restakin_zqwmnb154h6o7-stroke" data-item-order="0" transform="translate(63, 375)"></g><g id="g-root-tx_basestak_1qeg4h3154h8ub-stroke" data-item-order="0" transform="translate(51, 135)"></g><g id="g-root-tx_15_144upif154h6vi-stroke" data-item-order="0" transform="translate(265, 459)"></g><g id="g-root-shar_5upbb154ikgd-stroke" data-item-order="0" transform="translate(475, 447)"><g id="shar_5upbb154ikgd-stroke" fill="none" stroke-linecap="round" stroke-linejoin="round" stroke-miterlimit="4" stroke="#1ac3fb" stroke-width="2"><g><path d="M 37.578003 11L 54.956001 11C 54.956001 11 57 11 57 13.044L 57 29.4C 57 29.4 57 31.444 54.956001 31.444L 37.578003 31.444C 37.578003 31.444 35.534 31.444 35.534 29.4L 35.534 13.044C 35.534 13.044 35.534 11 37.578003 11M 35.534 17.962L 57 17.962M 35.534 24.704L 57 24.704M 45.242001 17.962L 45.242001 31.444M 50.998001 17.962L 50.998001 31.444M 20.200001 23.6L 15.6 28L 15.6 23.6C 15.665619 20.278273 18.4123 17.639059 21.734001 17.706001L 29.4 17.705999M 11 23.6L 15.6 28.01M 24.799999 13.29L 29.4 17.705999L 24.799999 22.122M 13.044 33.487999L 24.290001 33.487999C 24.290001 33.487999 26.334 33.487999 26.334 35.532001L 26.334 54.956001C 26.334 54.956001 26.334 57 24.290001 57L 13.044 57C 13.044 57 11 57 11 54.956001L 11 35.532001C 11 35.532001 11 33.487999 13.044 33.487999M 11 50.866001L 26.334 50.866001"></path></g></g></g><g id="g-root-tx_5_hydnzb154h6v5-stroke" data-item-order="0" transform="translate(599, 99)"></g><g id="g-root-tx_layer4_1qd76av154h6o4-stroke" data-item-order="0" transform="translate(699, 459)"></g><g id="g-root-tx_borrowin_1d1qnxj154h891-stroke" data-item-order="0" transform="translate(699, 495)"></g><g id="g-root-form_1umrxk7154pmo2-stroke" data-item-order="0" transform="translate(383, 87)"><g id="form_1umrxk7154pmo2-stroke" fill="none" stroke-linecap="round" stroke-linejoin="round" stroke-miterlimit="4" stroke="#43dd93" stroke-width="2"><g><path d="M 13 14.139999L 44.540001 14.139999C 44.540001 14.139999 46.540001 14.139999 46.540001 16.139999L 46.540001 51.860001C 46.540001 51.860001 46.540001 53.860001 44.540001 53.860001L 13 53.860001C 13 53.860001 11 53.860001 11 51.860001L 11 16.139999C 11 16.139999 11 14.139999 13 14.139999M 51.779999 48.639999L 51.779999 34L 51.779999 19.360001M 57 45.5L 57 22.5M 19.360001 20.42L 19.360001 32.959999L 36.440002 20.42L 19.360001 20.42ZM 19.360001 37.700001L 24.58 34L 32.84 34.02L 19.360001 43.099998L 19.360001 37.700001ZM 19.360001 47.599998L 26.68 42.68L 26.68 47.599998L 19.360001 47.599998Z"></path></g></g></g><g id="g-root-tx_totalapy_92qnqf154h7nu-stroke" data-item-order="0" transform="translate(87, 579)"></g><g id="g-root-1_1hjflbb154h6h8-stroke" data-item-order="0" transform="translate(383, 567)"><g id="1_1hjflbb154h6h8-stroke" fill="none" stroke-linecap="round" stroke-linejoin="round" stroke-miterlimit="4" stroke="#fb6762" stroke-width="2"><g><path d="M 13 11L 55 11C 55 11 57 11 57 13L 57 55C 57 55 57 57 55 57L 13 57C 13 57 11 57 11 55L 11 13C 11 13 11 11 13 11M 25 11L 25 35.321999M 43 11L 43 31.087999M 50.532001 25L 11 25M 57 43L 23 43M 11.8 56.599998L 15.268 46.599998C 18.101576 38.457348 25.778402 33.000267 34.400002 33L 34.400002 33C 43.118675 33.000465 50.859291 27.421387 53.616001 19.15L 56.200001 11.4M 25 41L 25 56.993999M 43 38L 43 57"></path></g></g></g><g id="g-root-tx_projecte_1ut0ofb154h5vv-stroke" data-item-order="0" transform="translate(39, 615)"></g><g id="g-root-tx_115_1hfoqsn154h8gd-stroke" data-item-order="0" transform="translate(587, 579)"></g><g id="g-root-tx_layer1_4oskvb154h7gi-stroke" data-item-order="0" transform="translate(111, 99)"></g></g></g></svg>